<svg width="302" height="805" viewBox="0 0 302 805" fill="none" xmlns="http://www.w3.org/2000/svg">
<path d="M75.1342 18.944L58.9702 71H50.2222L38.8462 35.432C38.5342 34.568 38.2462 33.512 37.9822 32.264C37.8382 32.864 37.6942 33.428 37.5502 33.956C37.4062 34.484 37.2502 34.976 37.0822 35.432L25.5982 71H16.8142L0.686219 18.944H8.78622C9.62622 18.944 10.3222 19.148 10.8742 19.556C11.4502 19.94 11.8342 20.468 12.0262 21.14L20.8822 52.28C21.0742 53.048 21.2542 53.888 21.4222 54.8C21.6142 55.688 21.8062 56.624 21.9982 57.608C22.1902 56.6 22.3942 55.652 22.6102 54.764C22.8502 53.876 23.1022 53.048 23.3662 52.28L33.5902 21.14C33.7822 20.588 34.1542 20.084 34.7062 19.628C35.2822 19.172 35.9782 18.944 36.7942 18.944H39.6382C40.4782 18.944 41.1622 19.148 41.6902 19.556C42.2182 19.964 42.6142 20.492 42.8782 21.14L53.0662 52.28C53.5702 53.768 54.0262 55.484 54.4342 57.428C54.7462 55.532 55.0942 53.816 55.4782 52.28L64.3342 21.14C64.4782 20.54 64.8382 20.024 65.4142 19.592C66.0142 19.16 66.7222 18.944 67.5382 18.944H75.1342ZM99.5591 48.284C99.5591 47.132 99.3911 46.052 99.0551 45.044C98.7431 44.012 98.2631 43.112 97.6151 42.344C96.9671 41.576 96.1391 40.976 95.1311 40.544C94.1471 40.088 92.9951 39.86 91.6751 39.86C89.1071 39.86 87.0791 40.592 85.5911 42.056C84.1271 43.52 83.1911 45.596 82.7831 48.284H99.5591ZM82.6031 53.648C82.7471 55.544 83.0831 57.188 83.6111 58.58C84.1391 59.948 84.8351 61.088 85.6991 62C86.5631 62.888 87.5831 63.56 88.7591 64.016C89.9591 64.448 91.2791 64.664 92.7191 64.664C94.1591 64.664 95.3951 64.496 96.4271 64.16C97.4831 63.824 98.3951 63.452 99.1631 63.044C99.9551 62.636 100.639 62.264 101.215 61.928C101.815 61.592 102.391 61.424 102.943 61.424C103.687 61.424 104.239 61.7 104.599 62.252L107.155 65.492C106.171 66.644 105.067 67.616 103.843 68.408C102.619 69.176 101.335 69.8 99.9911 70.28C98.6711 70.736 97.3151 71.06 95.9231 71.252C94.5551 71.444 93.2231 71.54 91.9271 71.54C89.3591 71.54 86.9711 71.12 84.7631 70.28C82.5551 69.416 80.6351 68.156 79.0031 66.5C77.3711 64.82 76.0871 62.756 75.1511 60.308C74.2151 57.836 73.7471 54.98 73.7471 51.74C73.7471 49.22 74.1551 46.856 74.9711 44.648C75.7871 42.416 76.9511 40.484 78.4631 38.852C79.9991 37.196 81.8591 35.888 84.0431 34.928C86.2511 33.968 88.7351 33.488 91.4951 33.488C93.8231 33.488 95.9711 33.86 97.9391 34.604C99.9071 35.348 101.599 36.44 103.015 37.88C104.431 39.296 105.535 41.048 106.327 43.136C107.143 45.2 107.551 47.564 107.551 50.228C107.551 51.572 107.407 52.484 107.119 52.964C106.831 53.42 106.279 53.648 105.463 53.648H82.6031ZM123.224 17.504V71H114.332V17.504H123.224ZM158.543 41.876C158.279 42.212 158.015 42.476 157.751 42.668C157.511 42.86 157.151 42.956 156.671 42.956C156.215 42.956 155.771 42.824 155.339 42.56C154.907 42.272 154.391 41.96 153.791 41.624C153.191 41.264 152.471 40.952 151.631 40.688C150.815 40.4 149.795 40.256 148.571 40.256C147.011 40.256 145.643 40.544 144.467 41.12C143.291 41.672 142.307 42.476 141.515 43.532C140.747 44.588 140.171 45.872 139.787 47.384C139.403 48.872 139.211 50.564 139.211 52.46C139.211 54.428 139.415 56.18 139.823 57.716C140.255 59.252 140.867 60.548 141.659 61.604C142.451 62.636 143.411 63.428 144.539 63.98C145.667 64.508 146.939 64.772 148.355 64.772C149.771 64.772 150.911 64.604 151.775 64.268C152.663 63.908 153.407 63.524 154.007 63.116C154.607 62.684 155.123 62.3 155.555 61.964C156.011 61.604 156.515 61.424 157.067 61.424C157.787 61.424 158.327 61.7 158.687 62.252L161.243 65.492C160.259 66.644 159.191 67.616 158.039 68.408C156.887 69.176 155.687 69.8 154.439 70.28C153.215 70.736 151.943 71.06 150.623 71.252C149.327 71.444 148.031 71.54 146.735 71.54C144.455 71.54 142.307 71.12 140.291 70.28C138.275 69.416 136.511 68.168 134.999 66.536C133.487 64.904 132.287 62.912 131.399 60.56C130.535 58.184 130.103 55.484 130.103 52.46C130.103 49.748 130.487 47.24 131.255 44.936C132.047 42.608 133.199 40.604 134.711 38.924C136.223 37.22 138.095 35.888 140.327 34.928C142.559 33.968 145.127 33.488 148.031 33.488C150.791 33.488 153.203 33.932 155.267 34.82C157.355 35.708 159.227 36.98 160.883 38.636L158.543 41.876ZM182.529 33.488C185.265 33.488 187.749 33.932 189.981 34.82C192.237 35.708 194.157 36.968 195.741 38.6C197.349 40.232 198.585 42.224 199.449 44.576C200.313 46.928 200.745 49.556 200.745 52.46C200.745 55.388 200.313 58.028 199.449 60.38C198.585 62.732 197.349 64.736 195.741 66.392C194.157 68.048 192.237 69.32 189.981 70.208C187.749 71.096 185.265 71.54 182.529 71.54C179.769 71.54 177.261 71.096 175.005 70.208C172.749 69.32 170.817 68.048 169.209 66.392C167.625 64.736 166.389 62.732 165.501 60.38C164.637 58.028 164.205 55.388 164.205 52.46C164.205 49.556 164.637 46.928 165.501 44.576C166.389 42.224 167.625 40.232 169.209 38.6C170.817 36.968 172.749 35.708 175.005 34.82C177.261 33.932 179.769 33.488 182.529 33.488ZM182.529 64.7C185.601 64.7 187.869 63.668 189.333 61.604C190.821 59.54 191.565 56.516 191.565 52.532C191.565 48.548 190.821 45.512 189.333 43.424C187.869 41.336 185.601 40.292 182.529 40.292C179.409 40.292 177.093 41.348 175.581 43.46C174.093 45.548 173.349 48.572 173.349 52.532C173.349 56.492 174.093 59.516 175.581 61.604C177.093 63.668 179.409 64.7 182.529 64.7ZM207.529 71V34.064H212.965C214.117 34.064 214.873 34.604 215.233 35.684L215.809 38.42C216.457 37.7 217.129 37.04 217.825 36.44C218.545 35.84 219.301 35.324 220.093 34.892C220.909 34.46 221.773 34.124 222.685 33.884C223.621 33.62 224.641 33.488 225.745 33.488C228.073 33.488 229.981 34.124 231.469 35.396C232.981 36.644 234.109 38.312 234.853 40.4C235.429 39.176 236.149 38.132 237.013 37.268C237.877 36.38 238.825 35.66 239.857 35.108C240.889 34.556 241.981 34.148 243.133 33.884C244.309 33.62 245.485 33.488 246.661 33.488C248.701 33.488 250.513 33.8 252.097 34.424C253.681 35.048 255.013 35.96 256.093 37.16C257.173 38.36 257.989 39.824 258.541 41.552C259.117 43.28 259.405 45.26 259.405 47.492V71H250.513V47.492C250.513 45.14 249.997 43.376 248.965 42.2C247.933 41 246.421 40.4 244.429 40.4C243.517 40.4 242.665 40.556 241.873 40.868C241.105 41.18 240.421 41.636 239.821 42.236C239.245 42.812 238.789 43.544 238.453 44.432C238.117 45.32 237.949 46.34 237.949 47.492V71H229.021V47.492C229.021 45.02 228.517 43.22 227.509 42.092C226.525 40.964 225.073 40.4 223.153 40.4C221.857 40.4 220.645 40.724 219.517 41.372C218.413 41.996 217.381 42.86 216.421 43.964V71H207.529ZM291.653 48.284C291.653 47.132 291.485 46.052 291.149 45.044C290.837 44.012 290.357 43.112 289.709 42.344C289.061 41.576 288.233 40.976 287.225 40.544C286.241 40.088 285.089 39.86 283.769 39.86C281.201 39.86 279.173 40.592 277.685 42.056C276.221 43.52 275.285 45.596 274.877 48.284H291.653ZM274.697 53.648C274.841 55.544 275.177 57.188 275.705 58.58C276.233 59.948 276.929 61.088 277.793 62C278.657 62.888 279.677 63.56 280.853 64.016C282.053 64.448 283.373 64.664 284.813 64.664C286.253 64.664 287.489 64.496 288.521 64.16C289.577 63.824 290.489 63.452 291.257 63.044C292.049 62.636 292.733 62.264 293.309 61.928C293.909 61.592 294.485 61.424 295.037 61.424C295.781 61.424 296.333 61.7 296.693 62.252L299.249 65.492C298.265 66.644 297.161 67.616 295.937 68.408C294.713 69.176 293.429 69.8 292.085 70.28C290.765 70.736 289.409 71.06 288.017 71.252C286.649 71.444 285.317 71.54 284.021 71.54C281.453 71.54 279.065 71.12 276.857 70.28C274.649 69.416 272.729 68.156 271.097 66.5C269.465 64.82 268.181 62.756 267.245 60.308C266.309 57.836 265.841 54.98 265.841 51.74C265.841 49.22 266.249 46.856 267.065 44.648C267.881 42.416 269.045 40.484 270.557 38.852C272.093 37.196 273.953 35.888 276.137 34.928C278.345 33.968 280.829 33.488 283.589 33.488C285.917 33.488 288.065 33.86 290.033 34.604C292.001 35.348 293.693 36.44 295.109 37.88C296.525 39.296 297.629 41.048 298.421 43.136C299.237 45.2 299.645 47.564 299.645 50.228C299.645 51.572 299.501 52.484 299.213 52.964C298.925 53.42 298.373 53.648 297.557 53.648H274.697Z" fill="#EBFAFF"/>
<path d="M27.4593 133.336V136H17.2953V118.648H20.5233V133.336H27.4593ZM45.7027 127.324C45.7027 128.596 45.4907 129.776 45.0667 130.864C44.6507 131.944 44.0587 132.88 43.2907 133.672C42.5227 134.464 41.5987 135.084 40.5187 135.532C39.4387 135.972 38.2387 136.192 36.9187 136.192C35.6067 136.192 34.4107 135.972 33.3307 135.532C32.2507 135.084 31.3227 134.464 30.5467 133.672C29.7787 132.88 29.1827 131.944 28.7587 130.864C28.3347 129.776 28.1227 128.596 28.1227 127.324C28.1227 126.052 28.3347 124.876 28.7587 123.796C29.1827 122.708 29.7787 121.768 30.5467 120.976C31.3227 120.184 32.2507 119.568 33.3307 119.128C34.4107 118.68 35.6067 118.456 36.9187 118.456C37.7987 118.456 38.6267 118.56 39.4027 118.768C40.1787 118.968 40.8907 119.256 41.5387 119.632C42.1867 120 42.7667 120.452 43.2787 120.988C43.7987 121.516 44.2387 122.108 44.5987 122.764C44.9587 123.42 45.2307 124.132 45.4147 124.9C45.6067 125.668 45.7027 126.476 45.7027 127.324ZM42.4027 127.324C42.4027 126.372 42.2747 125.52 42.0187 124.768C41.7627 124.008 41.3987 123.364 40.9267 122.836C40.4547 122.308 39.8787 121.904 39.1987 121.624C38.5267 121.344 37.7667 121.204 36.9187 121.204C36.0707 121.204 35.3067 121.344 34.6267 121.624C33.9547 121.904 33.3787 122.308 32.8987 122.836C32.4267 123.364 32.0627 124.008 31.8067 124.768C31.5507 125.52 31.4227 126.372 31.4227 127.324C31.4227 128.276 31.5507 129.132 31.8067 129.892C32.0627 130.644 32.4267 131.284 32.8987 131.812C33.3787 132.332 33.9547 132.732 34.6267 133.012C35.3067 133.292 36.0707 133.432 36.9187 133.432C37.7667 133.432 38.5267 133.292 39.1987 133.012C39.8787 132.732 40.4547 132.332 40.9267 131.812C41.3987 131.284 41.7627 130.644 42.0187 129.892C42.2747 129.132 42.4027 128.276 42.4027 127.324ZM62.8415 127.3V134.32C61.9615 134.968 61.0215 135.444 60.0215 135.748C59.0295 136.044 57.9655 136.192 56.8295 136.192C55.4135 136.192 54.1295 135.972 52.9775 135.532C51.8335 135.092 50.8535 134.48 50.0375 133.696C49.2295 132.912 48.6055 131.976 48.1655 130.888C47.7255 129.8 47.5055 128.612 47.5055 127.324C47.5055 126.02 47.7175 124.824 48.1415 123.736C48.5655 122.648 49.1655 121.712 49.9415 120.928C50.7255 120.144 51.6735 119.536 52.7855 119.104C53.8975 118.672 55.1455 118.456 56.5295 118.456C57.2335 118.456 57.8895 118.512 58.4975 118.624C59.1135 118.736 59.6815 118.892 60.2015 119.092C60.7295 119.284 61.2095 119.52 61.6415 119.8C62.0735 120.08 62.4695 120.388 62.8295 120.724L61.9055 122.188C61.7615 122.42 61.5735 122.564 61.3415 122.62C61.1095 122.668 60.8575 122.608 60.5855 122.44C60.3215 122.288 60.0575 122.136 59.7935 121.984C59.5295 121.832 59.2335 121.7 58.9055 121.588C58.5855 121.476 58.2215 121.384 57.8135 121.312C57.4135 121.24 56.9495 121.204 56.4215 121.204C55.5655 121.204 54.7895 121.348 54.0935 121.636C53.4055 121.924 52.8175 122.336 52.3295 122.872C51.8415 123.408 51.4655 124.052 51.2015 124.804C50.9375 125.556 50.8055 126.396 50.8055 127.324C50.8055 128.316 50.9455 129.204 51.2255 129.988C51.5135 130.764 51.9135 131.424 52.4255 131.968C52.9455 132.504 53.5695 132.916 54.2975 133.204C55.0255 133.484 55.8375 133.624 56.7335 133.624C57.3735 133.624 57.9455 133.556 58.4495 133.42C58.9535 133.284 59.4455 133.1 59.9255 132.868V129.724H57.7415C57.5335 129.724 57.3695 129.668 57.2495 129.556C57.1375 129.436 57.0815 129.292 57.0815 129.124V127.3H62.8415ZM69.1915 136H65.9515V118.648H69.1915V136ZM87.7045 118.648V136H86.0485C85.7925 136 85.5765 135.96 85.4005 135.88C85.2325 135.792 85.0685 135.648 84.9085 135.448L75.8485 123.88C75.8965 124.408 75.9205 124.896 75.9205 125.344V136H73.0765V118.648H74.7685C74.9045 118.648 75.0205 118.656 75.1165 118.672C75.2205 118.68 75.3085 118.704 75.3805 118.744C75.4605 118.776 75.5365 118.828 75.6085 118.9C75.6805 118.964 75.7605 119.052 75.8485 119.164L84.9445 130.78C84.9205 130.5 84.9005 130.224 84.8845 129.952C84.8685 129.68 84.8605 129.428 84.8605 129.196V118.648H87.7045Z" fill="#EBFAFF"/>
<path d="M209.235 121.804C209.139 121.972 209.035 122.096 208.923 122.176C208.819 122.248 208.687 122.284 208.527 122.284C208.359 122.284 208.175 122.224 207.975 122.104C207.783 121.976 207.551 121.836 207.279 121.684C207.007 121.532 206.687 121.396 206.319 121.276C205.959 121.148 205.531 121.084 205.035 121.084C204.587 121.084 204.195 121.14 203.859 121.252C203.523 121.356 203.239 121.504 203.007 121.696C202.783 121.888 202.615 122.12 202.503 122.392C202.391 122.656 202.335 122.948 202.335 123.268C202.335 123.676 202.447 124.016 202.671 124.288C202.903 124.56 203.207 124.792 203.583 124.984C203.959 125.176 204.387 125.348 204.867 125.5C205.347 125.652 205.839 125.816 206.343 125.992C206.847 126.16 207.339 126.36 207.819 126.592C208.299 126.816 208.727 127.104 209.103 127.456C209.479 127.8 209.779 128.224 210.003 128.728C210.235 129.232 210.351 129.844 210.351 130.564C210.351 131.348 210.215 132.084 209.943 132.772C209.679 133.452 209.287 134.048 208.767 134.56C208.255 135.064 207.627 135.464 206.883 135.76C206.139 136.048 205.287 136.192 204.327 136.192C203.775 136.192 203.231 136.136 202.695 136.024C202.159 135.92 201.643 135.768 201.146 135.568C200.659 135.368 200.199 135.128 199.767 134.848C199.335 134.568 198.951 134.256 198.615 133.912L199.562 132.364C199.643 132.252 199.747 132.16 199.875 132.088C200.003 132.008 200.139 131.968 200.283 131.968C200.483 131.968 200.699 132.052 200.931 132.22C201.163 132.38 201.439 132.56 201.759 132.76C202.079 132.96 202.451 133.144 202.875 133.312C203.307 133.472 203.823 133.552 204.423 133.552C205.343 133.552 206.055 133.336 206.559 132.904C207.063 132.464 207.315 131.836 207.315 131.02C207.315 130.564 207.199 130.192 206.967 129.904C206.743 129.616 206.443 129.376 206.067 129.184C205.691 128.984 205.263 128.816 204.783 128.68C204.303 128.544 203.815 128.396 203.319 128.236C202.823 128.076 202.335 127.884 201.855 127.66C201.375 127.436 200.947 127.144 200.571 126.784C200.195 126.424 199.891 125.976 199.659 125.44C199.435 124.896 199.323 124.228 199.323 123.436C199.323 122.804 199.447 122.188 199.695 121.588C199.951 120.988 200.319 120.456 200.799 119.992C201.279 119.528 201.871 119.156 202.575 118.876C203.279 118.596 204.087 118.456 204.999 118.456C206.023 118.456 206.967 118.616 207.831 118.936C208.695 119.256 209.431 119.704 210.039 120.28L209.235 121.804ZM216.406 136H213.166V118.648H216.406V136ZM234.595 127.3V134.32C233.715 134.968 232.775 135.444 231.775 135.748C230.783 136.044 229.719 136.192 228.583 136.192C227.167 136.192 225.883 135.972 224.731 135.532C223.587 135.092 222.607 134.48 221.791 133.696C220.983 132.912 220.359 131.976 219.919 130.888C219.479 129.8 219.259 128.612 219.259 127.324C219.259 126.02 219.471 124.824 219.895 123.736C220.319 122.648 220.919 121.712 221.695 120.928C222.479 120.144 223.427 119.536 224.539 119.104C225.651 118.672 226.899 118.456 228.283 118.456C228.987 118.456 229.643 118.512 230.251 118.624C230.867 118.736 231.435 118.892 231.955 119.092C232.483 119.284 232.963 119.52 233.395 119.8C233.827 120.08 234.223 120.388 234.583 120.724L233.659 122.188C233.515 122.42 233.327 122.564 233.095 122.62C232.863 122.668 232.611 122.608 232.339 122.44C232.075 122.288 231.811 122.136 231.547 121.984C231.283 121.832 230.987 121.7 230.659 121.588C230.339 121.476 229.975 121.384 229.567 121.312C229.167 121.24 228.703 121.204 228.175 121.204C227.319 121.204 226.543 121.348 225.847 121.636C225.159 121.924 224.571 122.336 224.083 122.872C223.595 123.408 223.219 124.052 222.955 124.804C222.691 125.556 222.559 126.396 222.559 127.324C222.559 128.316 222.699 129.204 222.979 129.988C223.267 130.764 223.667 131.424 224.179 131.968C224.699 132.504 225.323 132.916 226.051 133.204C226.779 133.484 227.591 133.624 228.487 133.624C229.127 133.624 229.699 133.556 230.203 133.42C230.707 133.284 231.199 133.1 231.679 132.868V129.724H229.495C229.287 129.724 229.123 129.668 229.003 129.556C228.891 129.436 228.835 129.292 228.835 129.124V127.3H234.595ZM252.333 118.648V136H250.677C250.421 136 250.205 135.96 250.029 135.88C249.861 135.792 249.697 135.648 249.537 135.448L240.477 123.88C240.525 124.408 240.549 124.896 240.549 125.344V136H237.705V118.648H239.397C239.533 118.648 239.649 118.656 239.745 118.672C239.849 118.68 239.937 118.704 240.009 118.744C240.089 118.776 240.165 118.828 240.237 118.9C240.309 118.964 240.389 119.052 240.477 119.164L249.573 130.78C249.549 130.5 249.529 130.224 249.513 129.952C249.497 129.68 249.489 129.428 249.489 129.196V118.648H252.333ZM263.182 133.396C263.806 133.396 264.362 133.292 264.85 133.084C265.346 132.876 265.762 132.584 266.098 132.208C266.434 131.832 266.69 131.376 266.866 130.84C267.05 130.304 267.142 129.704 267.142 129.04V118.648H270.37V129.04C270.37 130.072 270.202 131.028 269.866 131.908C269.538 132.78 269.062 133.536 268.438 134.176C267.822 134.808 267.07 135.304 266.182 135.664C265.294 136.016 264.294 136.192 263.182 136.192C262.062 136.192 261.058 136.016 260.17 135.664C259.282 135.304 258.526 134.808 257.902 134.176C257.286 133.536 256.81 132.78 256.474 131.908C256.146 131.028 255.982 130.072 255.982 129.04V118.648H259.21V129.028C259.21 129.692 259.298 130.292 259.474 130.828C259.658 131.364 259.918 131.824 260.254 132.208C260.598 132.584 261.014 132.876 261.502 133.084C261.998 133.292 262.558 133.396 263.182 133.396ZM279.65 127.372C280.242 127.372 280.758 127.3 281.198 127.156C281.638 127.004 282.002 126.792 282.29 126.52C282.586 126.24 282.806 125.904 282.95 125.512C283.094 125.112 283.166 124.668 283.166 124.18C283.166 123.716 283.094 123.296 282.95 122.92C282.806 122.544 282.59 122.224 282.302 121.96C282.014 121.696 281.65 121.496 281.21 121.36C280.77 121.216 280.25 121.144 279.65 121.144H277.238V127.372H279.65ZM279.65 118.648C280.81 118.648 281.814 118.784 282.662 119.056C283.51 119.328 284.21 119.708 284.762 120.196C285.314 120.684 285.722 121.268 285.986 121.948C286.258 122.628 286.394 123.372 286.394 124.18C286.394 125.02 286.254 125.792 285.974 126.496C285.694 127.192 285.274 127.792 284.714 128.296C284.154 128.8 283.45 129.192 282.602 129.472C281.762 129.752 280.778 129.892 279.65 129.892H277.238V136H274.01V118.648H279.65Z" fill="#EBFAFF"/>
<rect x="15.5" y="227.5" width="271" height="57" rx="11.5" stroke="#EBFAFF"/>
<path d="M35.1749 250.896V254.744H39.7829V256.128H35.1749V261H33.4629V249.512H40.5829V250.896H35.1749ZM46.9898 259.632C47.4484 259.632 47.8591 259.555 48.2218 259.4C48.5844 259.245 48.8911 259.029 49.1418 258.752C49.3924 258.469 49.5844 258.136 49.7178 257.752C49.8511 257.363 49.9178 256.933 49.9178 256.464V249.512H51.6138V256.464C51.6138 257.136 51.5071 257.757 51.2938 258.328C51.0804 258.899 50.7738 259.392 50.3738 259.808C49.9738 260.224 49.4884 260.549 48.9178 260.784C48.3471 261.019 47.7044 261.136 46.9898 261.136C46.2751 261.136 45.6324 261.019 45.0618 260.784C44.4911 260.549 44.0058 260.224 43.6058 259.808C43.2058 259.392 42.8991 258.899 42.6858 258.328C42.4724 257.757 42.3658 257.136 42.3658 256.464V249.512H44.0698V256.456C44.0698 256.925 44.1338 257.355 44.2618 257.744C44.3951 258.133 44.5871 258.469 44.8378 258.752C45.0884 259.029 45.3951 259.245 45.7578 259.4C46.1204 259.555 46.5311 259.632 46.9898 259.632ZM55.4304 249.192V261H53.8624V249.192H55.4304ZM59.2585 249.192V261H57.6905V249.192H59.2585ZM71.0896 249.512V261H70.2256C70.0923 261 69.9803 260.976 69.8896 260.928C69.8043 260.88 69.7163 260.803 69.6256 260.696L63.1376 252.304C63.1483 252.448 63.1563 252.589 63.1616 252.728C63.1723 252.867 63.1776 252.997 63.1776 253.12V261H61.6816V249.512H62.5616C62.711 249.512 62.823 249.531 62.8976 249.568C62.9723 249.6 63.055 249.677 63.1456 249.8L69.6496 258.2C69.6336 258.045 69.6203 257.896 69.6096 257.752C69.6043 257.603 69.6016 257.464 69.6016 257.336V249.512H71.0896ZM77.7453 257.392C77.1106 257.413 76.5719 257.464 76.1293 257.544C75.6866 257.619 75.3266 257.72 75.0493 257.848C74.7719 257.976 74.5719 258.128 74.4493 258.304C74.3266 258.475 74.2653 258.667 74.2653 258.88C74.2653 259.083 74.2973 259.259 74.3613 259.408C74.4306 259.552 74.5213 259.672 74.6332 259.768C74.7506 259.859 74.8866 259.925 75.0413 259.968C75.1959 260.011 75.3639 260.032 75.5453 260.032C75.7853 260.032 76.0039 260.008 76.2013 259.96C76.4039 259.912 76.5933 259.845 76.7693 259.76C76.9453 259.669 77.1133 259.56 77.2733 259.432C77.4333 259.304 77.5906 259.157 77.7453 258.992V257.392ZM73.1693 254.008C73.6226 253.576 74.1133 253.253 74.6413 253.04C75.1746 252.827 75.7586 252.72 76.3932 252.72C76.8573 252.72 77.2679 252.797 77.6253 252.952C77.9826 253.101 78.2839 253.312 78.5293 253.584C78.7746 253.856 78.9586 254.181 79.0813 254.56C79.2093 254.939 79.2733 255.357 79.2733 255.816V261H78.5773C78.4226 261 78.3053 260.976 78.2253 260.928C78.1453 260.875 78.0813 260.779 78.0333 260.64L77.8653 259.928C77.6573 260.12 77.4519 260.291 77.2493 260.44C77.0466 260.584 76.8333 260.709 76.6093 260.816C76.3906 260.917 76.1559 260.995 75.9053 261.048C75.6546 261.101 75.3773 261.128 75.0733 261.128C74.7533 261.128 74.4519 261.085 74.1693 261C73.8919 260.909 73.6493 260.773 73.4413 260.592C73.2333 260.411 73.0679 260.184 72.9453 259.912C72.8279 259.64 72.7693 259.323 72.7693 258.96C72.7693 258.64 72.8546 258.333 73.0253 258.04C73.2013 257.741 73.4839 257.475 73.8733 257.24C74.2679 257.005 74.7799 256.813 75.4093 256.664C76.0439 256.515 76.8226 256.429 77.7453 256.408V255.816C77.7453 255.203 77.6146 254.744 77.3533 254.44C77.0919 254.136 76.7079 253.984 76.2013 253.984C75.8599 253.984 75.5719 254.027 75.3373 254.112C75.1079 254.197 74.9079 254.293 74.7373 254.4C74.5719 254.501 74.4253 254.595 74.2973 254.68C74.1746 254.765 74.0466 254.808 73.9133 254.808C73.8066 254.808 73.7133 254.779 73.6333 254.72C73.5586 254.661 73.4973 254.592 73.4493 254.512L73.1693 254.008ZM81.3616 261V252.872H82.2976C82.5163 252.872 82.6523 252.976 82.7056 253.184L82.8176 253.96C83.1163 253.603 83.447 253.312 83.8096 253.088C84.1776 252.859 84.607 252.744 85.0976 252.744C85.6363 252.744 86.0736 252.893 86.4096 253.192C86.7456 253.485 86.991 253.885 87.1456 254.392C87.263 254.104 87.415 253.856 87.6016 253.648C87.7883 253.44 87.9963 253.269 88.2256 253.136C88.455 253.003 88.6976 252.904 88.9536 252.84C89.215 252.776 89.479 252.744 89.7456 252.744C90.1776 252.744 90.5616 252.813 90.8976 252.952C91.239 253.085 91.527 253.283 91.7616 253.544C91.9963 253.805 92.175 254.128 92.2976 254.512C92.4203 254.896 92.4816 255.333 92.4816 255.824V261H90.9136V255.824C90.9136 255.216 90.7803 254.757 90.5136 254.448C90.2523 254.139 89.8683 253.984 89.3616 253.984C89.1376 253.984 88.9243 254.024 88.7216 254.104C88.519 254.179 88.3403 254.293 88.1856 254.448C88.0363 254.603 87.9163 254.795 87.8256 255.024C87.7403 255.253 87.6976 255.52 87.6976 255.824V261H86.1296V255.824C86.1296 255.195 86.0043 254.731 85.7536 254.432C85.503 254.133 85.135 253.984 84.6496 253.984C84.3136 253.984 84.0016 254.072 83.7136 254.248C83.4256 254.424 83.1616 254.664 82.9216 254.968V261H81.3616ZM99.9644 256.032C99.9644 255.723 99.919 255.437 99.8284 255.176C99.743 254.915 99.615 254.688 99.4444 254.496C99.2737 254.304 99.0657 254.155 98.8204 254.048C98.575 253.941 98.2924 253.888 97.9724 253.888C97.3164 253.888 96.799 254.077 96.4204 254.456C96.047 254.835 95.8097 255.36 95.7084 256.032H99.9644ZM101.252 259.84C101.06 260.064 100.839 260.259 100.588 260.424C100.338 260.584 100.071 260.715 99.7884 260.816C99.5057 260.917 99.2124 260.992 98.9084 261.04C98.6097 261.088 98.3137 261.112 98.0204 261.112C97.4604 261.112 96.9404 261.019 96.4604 260.832C95.9857 260.64 95.5724 260.363 95.2204 260C94.8737 259.632 94.6017 259.179 94.4044 258.64C94.2124 258.096 94.1164 257.472 94.1164 256.768C94.1164 256.203 94.2044 255.677 94.3804 255.192C94.5564 254.701 94.807 254.275 95.1324 253.912C95.463 253.549 95.8657 253.264 96.3404 253.056C96.815 252.848 97.3484 252.744 97.9404 252.744C98.4364 252.744 98.8924 252.827 99.3084 252.992C99.7297 253.152 100.092 253.387 100.396 253.696C100.7 254.005 100.938 254.387 101.108 254.84C101.284 255.293 101.372 255.811 101.372 256.392C101.372 256.632 101.346 256.795 101.292 256.88C101.239 256.96 101.14 257 100.996 257H95.6684C95.6844 257.485 95.7537 257.909 95.8764 258.272C95.999 258.629 96.167 258.928 96.3804 259.168C96.599 259.408 96.8577 259.587 97.1564 259.704C97.455 259.821 97.7884 259.88 98.1564 259.88C98.503 259.88 98.8017 259.84 99.0524 259.76C99.3084 259.68 99.527 259.595 99.7084 259.504C99.895 259.408 100.05 259.32 100.172 259.24C100.3 259.16 100.412 259.12 100.508 259.12C100.636 259.12 100.735 259.168 100.804 259.264L101.252 259.84Z" fill="#808080"/>
<rect x="15.5" y="333.5" width="271" height="57" rx="11.5" stroke="#EBFAFF"/>
<path d="M43.5674 365.616L43.5594 367H36.4394V355.512H43.5594V356.896H38.1514V360.536H42.5034V361.872H38.1514V365.616H43.5674ZM45.1507 367V358.872H46.0867C46.3054 358.872 46.4414 358.976 46.4947 359.184L46.6067 359.96C46.9054 359.603 47.236 359.312 47.5987 359.088C47.9667 358.859 48.396 358.744 48.8867 358.744C49.4254 358.744 49.8627 358.893 50.1987 359.192C50.5347 359.485 50.78 359.885 50.9347 360.392C51.052 360.104 51.204 359.856 51.3907 359.648C51.5774 359.44 51.7854 359.269 52.0147 359.136C52.244 359.003 52.4867 358.904 52.7427 358.84C53.004 358.776 53.268 358.744 53.5347 358.744C53.9667 358.744 54.3507 358.813 54.6867 358.952C55.028 359.085 55.316 359.283 55.5507 359.544C55.7854 359.805 55.964 360.128 56.0867 360.512C56.2094 360.896 56.2707 361.333 56.2707 361.824V367H54.7027V361.824C54.7027 361.216 54.5694 360.757 54.3027 360.448C54.0414 360.139 53.6574 359.984 53.1507 359.984C52.9267 359.984 52.7134 360.024 52.5107 360.104C52.308 360.179 52.1294 360.293 51.9747 360.448C51.8254 360.603 51.7054 360.795 51.6147 361.024C51.5294 361.253 51.4867 361.52 51.4867 361.824V367H49.9187V361.824C49.9187 361.195 49.7934 360.731 49.5427 360.432C49.292 360.133 48.924 359.984 48.4387 359.984C48.1027 359.984 47.7907 360.072 47.5027 360.248C47.2147 360.424 46.9507 360.664 46.7107 360.968V367H45.1507ZM62.7374 363.392C62.1028 363.413 61.5641 363.464 61.1214 363.544C60.6788 363.619 60.3188 363.72 60.0414 363.848C59.7641 363.976 59.5641 364.128 59.4414 364.304C59.3188 364.475 59.2574 364.667 59.2574 364.88C59.2574 365.083 59.2894 365.259 59.3534 365.408C59.4228 365.552 59.5134 365.672 59.6254 365.768C59.7428 365.859 59.8788 365.925 60.0334 365.968C60.1881 366.011 60.3561 366.032 60.5374 366.032C60.7774 366.032 60.9961 366.008 61.1934 365.96C61.3961 365.912 61.5854 365.845 61.7614 365.76C61.9374 365.669 62.1054 365.56 62.2654 365.432C62.4254 365.304 62.5828 365.157 62.7374 364.992V363.392ZM58.1614 360.008C58.6148 359.576 59.1054 359.253 59.6334 359.04C60.1668 358.827 60.7508 358.72 61.3854 358.72C61.8494 358.72 62.2601 358.797 62.6174 358.952C62.9748 359.101 63.2761 359.312 63.5214 359.584C63.7668 359.856 63.9508 360.181 64.0734 360.56C64.2014 360.939 64.2654 361.357 64.2654 361.816V367H63.5694C63.4148 367 63.2974 366.976 63.2174 366.928C63.1374 366.875 63.0734 366.779 63.0254 366.64L62.8574 365.928C62.6494 366.12 62.4441 366.291 62.2414 366.44C62.0388 366.584 61.8254 366.709 61.6014 366.816C61.3828 366.917 61.1481 366.995 60.8974 367.048C60.6468 367.101 60.3694 367.128 60.0654 367.128C59.7454 367.128 59.4441 367.085 59.1614 367C58.8841 366.909 58.6414 366.773 58.4334 366.592C58.2254 366.411 58.0601 366.184 57.9374 365.912C57.8201 365.64 57.7614 365.323 57.7614 364.96C57.7614 364.64 57.8468 364.333 58.0174 364.04C58.1934 363.741 58.4761 363.475 58.8654 363.24C59.2601 363.005 59.7721 362.813 60.4014 362.664C61.0361 362.515 61.8148 362.429 62.7374 362.408V361.816C62.7374 361.203 62.6068 360.744 62.3454 360.44C62.0841 360.136 61.7001 359.984 61.1934 359.984C60.8521 359.984 60.5641 360.027 60.3294 360.112C60.1001 360.197 59.9001 360.293 59.7294 360.4C59.5641 360.501 59.4174 360.595 59.2894 360.68C59.1668 360.765 59.0388 360.808 58.9054 360.808C58.7988 360.808 58.7054 360.779 58.6254 360.72C58.5508 360.661 58.4894 360.592 58.4414 360.512L58.1614 360.008ZM67.9858 358.872V367H66.4258V358.872H67.9858ZM68.2818 356.36C68.2818 356.504 68.2525 356.643 68.1938 356.776C68.1351 356.904 68.0551 357.019 67.9538 357.12C67.8578 357.216 67.7431 357.293 67.6098 357.352C67.4765 357.405 67.3378 357.432 67.1938 357.432C67.0498 357.432 66.9138 357.405 66.7858 357.352C66.6578 357.293 66.5431 357.216 66.4418 357.12C66.3458 357.019 66.2685 356.904 66.2098 356.776C66.1565 356.643 66.1298 356.504 66.1298 356.36C66.1298 356.211 66.1565 356.072 66.2098 355.944C66.2685 355.811 66.3458 355.696 66.4418 355.6C66.5431 355.499 66.6578 355.421 66.7858 355.368C66.9138 355.309 67.0498 355.28 67.1938 355.28C67.3378 355.28 67.4765 355.309 67.6098 355.368C67.7431 355.421 67.8578 355.499 67.9538 355.6C68.0551 355.696 68.1351 355.811 68.1938 355.944C68.2525 356.072 68.2818 356.211 68.2818 356.36ZM71.8444 355.192V367H70.2764V355.192H71.8444Z" fill="#808080"/>
<rect x="15.5" y="439.5" width="271" height="57" rx="11.5" stroke="#EBFAFF"/>
<path d="M33.1248 472C33.3808 472.336 33.6554 472.571 33.9488 472.704C34.2474 472.837 34.5808 472.904 34.9488 472.904C35.6634 472.904 36.2154 472.648 36.6048 472.136C36.9994 471.619 37.1968 470.867 37.1968 469.88C37.1968 469.363 37.1514 468.923 37.0608 468.56C36.9754 468.192 36.8474 467.893 36.6768 467.664C36.5114 467.429 36.3061 467.259 36.0608 467.152C35.8154 467.04 35.5381 466.984 35.2288 466.984C34.7754 466.984 34.3808 467.085 34.0448 467.288C33.7141 467.491 33.4074 467.779 33.1248 468.152V472ZM33.0448 467.088C33.2154 466.885 33.3968 466.701 33.5888 466.536C33.7861 466.365 33.9968 466.221 34.2208 466.104C34.4448 465.981 34.6821 465.888 34.9328 465.824C35.1888 465.755 35.4608 465.72 35.7488 465.72C36.2128 465.72 36.6314 465.811 37.0048 465.992C37.3834 466.173 37.7061 466.44 37.9728 466.792C38.2394 467.144 38.4448 467.579 38.5888 468.096C38.7381 468.613 38.8128 469.208 38.8128 469.88C38.8128 470.483 38.7301 471.043 38.5648 471.56C38.4048 472.072 38.1728 472.517 37.8688 472.896C37.5701 473.275 37.2021 473.573 36.7648 473.792C36.3328 474.005 35.8448 474.112 35.3008 474.112C34.8154 474.112 34.3994 474.032 34.0528 473.872C33.7061 473.712 33.3968 473.488 33.1248 473.2V476.728H31.5648V465.872H32.5008C32.7194 465.872 32.8554 465.976 32.9088 466.184L33.0448 467.088ZM44.9328 470.392C44.2981 470.413 43.7594 470.464 43.3168 470.544C42.8741 470.619 42.5141 470.72 42.2368 470.848C41.9594 470.976 41.7594 471.128 41.6368 471.304C41.5141 471.475 41.4528 471.667 41.4528 471.88C41.4528 472.083 41.4848 472.259 41.5488 472.408C41.6181 472.552 41.7088 472.672 41.8207 472.768C41.9381 472.859 42.0741 472.925 42.2288 472.968C42.3834 473.011 42.5514 473.032 42.7328 473.032C42.9728 473.032 43.1914 473.008 43.3888 472.96C43.5914 472.912 43.7808 472.845 43.9568 472.76C44.1328 472.669 44.3008 472.56 44.4608 472.432C44.6208 472.304 44.7781 472.157 44.9328 471.992V470.392ZM40.3568 467.008C40.8101 466.576 41.3008 466.253 41.8288 466.04C42.3621 465.827 42.9461 465.72 43.5807 465.72C44.0448 465.72 44.4554 465.797 44.8128 465.952C45.1701 466.101 45.4714 466.312 45.7168 466.584C45.9621 466.856 46.1461 467.181 46.2688 467.56C46.3968 467.939 46.4608 468.357 46.4608 468.816V474H45.7648C45.6101 474 45.4928 473.976 45.4128 473.928C45.3328 473.875 45.2688 473.779 45.2208 473.64L45.0528 472.928C44.8448 473.12 44.6394 473.291 44.4368 473.44C44.2341 473.584 44.0208 473.709 43.7968 473.816C43.5781 473.917 43.3434 473.995 43.0928 474.048C42.8421 474.101 42.5648 474.128 42.2608 474.128C41.9408 474.128 41.6394 474.085 41.3568 474C41.0794 473.909 40.8368 473.773 40.6288 473.592C40.4208 473.411 40.2554 473.184 40.1328 472.912C40.0154 472.64 39.9568 472.323 39.9568 471.96C39.9568 471.64 40.0421 471.333 40.2128 471.04C40.3888 470.741 40.6714 470.475 41.0608 470.24C41.4554 470.005 41.9674 469.813 42.5968 469.664C43.2314 469.515 44.0101 469.429 44.9328 469.408V468.816C44.9328 468.203 44.8021 467.744 44.5408 467.44C44.2794 467.136 43.8954 466.984 43.3888 466.984C43.0474 466.984 42.7594 467.027 42.5248 467.112C42.2954 467.197 42.0954 467.293 41.9248 467.4C41.7594 467.501 41.6128 467.595 41.4848 467.68C41.3621 467.765 41.2341 467.808 41.1008 467.808C40.9941 467.808 40.9008 467.779 40.8208 467.72C40.7461 467.661 40.6848 467.592 40.6368 467.512L40.3568 467.008ZM53.3411 467.272C53.2985 467.341 53.2531 467.392 53.2051 467.424C53.1571 467.451 53.0958 467.464 53.0211 467.464C52.9358 467.464 52.8398 467.435 52.7331 467.376C52.6318 467.317 52.5065 467.253 52.3571 467.184C52.2131 467.115 52.0425 467.051 51.8451 466.992C51.6478 466.933 51.4131 466.904 51.1411 466.904C50.9171 466.904 50.7118 466.933 50.5251 466.992C50.3438 467.045 50.1891 467.123 50.0611 467.224C49.9331 467.32 49.8345 467.437 49.7651 467.576C49.6958 467.709 49.6611 467.853 49.6611 468.008C49.6611 468.211 49.7198 468.379 49.8371 468.512C49.9598 468.645 50.1171 468.76 50.3091 468.856C50.5065 468.952 50.7278 469.04 50.9731 469.12C51.2238 469.195 51.4771 469.275 51.7331 469.36C51.9945 469.445 52.2478 469.544 52.4931 469.656C52.7438 469.763 52.9651 469.899 53.1571 470.064C53.3545 470.224 53.5118 470.419 53.6291 470.648C53.7518 470.877 53.8131 471.157 53.8131 471.488C53.8131 471.867 53.7438 472.219 53.6051 472.544C53.4718 472.864 53.2718 473.141 53.0051 473.376C52.7438 473.611 52.4185 473.795 52.0291 473.928C51.6398 474.061 51.1945 474.128 50.6931 474.128C50.1331 474.128 49.6158 474.035 49.1411 473.848C48.6665 473.661 48.2691 473.424 47.9491 473.136L48.3171 472.536C48.3598 472.461 48.4131 472.405 48.4771 472.368C48.5411 472.325 48.6265 472.304 48.7331 472.304C48.8345 472.304 48.9385 472.341 49.0451 472.416C49.1518 472.491 49.2798 472.573 49.4291 472.664C49.5785 472.749 49.7598 472.829 49.9731 472.904C50.1865 472.973 50.4531 473.008 50.7731 473.008C51.0398 473.008 51.2718 472.976 51.4691 472.912C51.6665 472.843 51.8291 472.752 51.9571 472.64C52.0905 472.523 52.1891 472.389 52.2531 472.24C52.3171 472.091 52.3491 471.933 52.3491 471.768C52.3491 471.555 52.2878 471.379 52.1651 471.24C52.0478 471.096 51.8905 470.973 51.6931 470.872C51.5011 470.771 51.2798 470.683 51.0291 470.608C50.7785 470.533 50.5225 470.453 50.2611 470.368C49.9998 470.283 49.7438 470.184 49.4931 470.072C49.2425 469.96 49.0185 469.819 48.8211 469.648C48.6291 469.477 48.4718 469.269 48.3491 469.024C48.2318 468.779 48.1731 468.48 48.1731 468.128C48.1731 467.813 48.2371 467.512 48.3651 467.224C48.4985 466.936 48.6878 466.683 48.9331 466.464C49.1838 466.245 49.4905 466.072 49.8531 465.944C50.2211 465.811 50.6398 465.744 51.1091 465.744C51.6478 465.744 52.1331 465.829 52.5651 466C53.0025 466.171 53.3758 466.405 53.6851 466.704L53.3411 467.272ZM60.2943 467.272C60.2516 467.341 60.2063 467.392 60.1583 467.424C60.1103 467.451 60.0489 467.464 59.9743 467.464C59.8889 467.464 59.7929 467.435 59.6863 467.376C59.5849 467.317 59.4596 467.253 59.3103 467.184C59.1663 467.115 58.9956 467.051 58.7983 466.992C58.6009 466.933 58.3663 466.904 58.0943 466.904C57.8703 466.904 57.6649 466.933 57.4783 466.992C57.2969 467.045 57.1423 467.123 57.0143 467.224C56.8863 467.32 56.7876 467.437 56.7183 467.576C56.6489 467.709 56.6143 467.853 56.6143 468.008C56.6143 468.211 56.6729 468.379 56.7903 468.512C56.9129 468.645 57.0703 468.76 57.2623 468.856C57.4596 468.952 57.6809 469.04 57.9263 469.12C58.1769 469.195 58.4303 469.275 58.6863 469.36C58.9476 469.445 59.2009 469.544 59.4463 469.656C59.6969 469.763 59.9183 469.899 60.1103 470.064C60.3076 470.224 60.4649 470.419 60.5823 470.648C60.7049 470.877 60.7663 471.157 60.7663 471.488C60.7663 471.867 60.6969 472.219 60.5583 472.544C60.4249 472.864 60.2249 473.141 59.9583 473.376C59.6969 473.611 59.3716 473.795 58.9823 473.928C58.5929 474.061 58.1476 474.128 57.6463 474.128C57.0863 474.128 56.5689 474.035 56.0943 473.848C55.6196 473.661 55.2223 473.424 54.9023 473.136L55.2703 472.536C55.3129 472.461 55.3663 472.405 55.4303 472.368C55.4943 472.325 55.5796 472.304 55.6863 472.304C55.7876 472.304 55.8916 472.341 55.9983 472.416C56.1049 472.491 56.2329 472.573 56.3823 472.664C56.5316 472.749 56.7129 472.829 56.9263 472.904C57.1396 472.973 57.4063 473.008 57.7263 473.008C57.9929 473.008 58.2249 472.976 58.4223 472.912C58.6196 472.843 58.7823 472.752 58.9103 472.64C59.0436 472.523 59.1423 472.389 59.2063 472.24C59.2703 472.091 59.3023 471.933 59.3023 471.768C59.3023 471.555 59.2409 471.379 59.1183 471.24C59.0009 471.096 58.8436 470.973 58.6463 470.872C58.4543 470.771 58.2329 470.683 57.9823 470.608C57.7316 470.533 57.4756 470.453 57.2143 470.368C56.9529 470.283 56.6969 470.184 56.4463 470.072C56.1956 469.96 55.9716 469.819 55.7743 469.648C55.5823 469.477 55.4249 469.269 55.3023 469.024C55.1849 468.779 55.1263 468.48 55.1263 468.128C55.1263 467.813 55.1903 467.512 55.3183 467.224C55.4516 466.936 55.6409 466.683 55.8863 466.464C56.1369 466.245 56.4436 466.072 56.8063 465.944C57.1743 465.811 57.5929 465.744 58.0623 465.744C58.6009 465.744 59.0863 465.829 59.5183 466C59.9556 466.171 60.3289 466.405 60.6383 466.704L60.2943 467.272ZM73.7594 465.872L71.1434 474H69.8954C69.746 474 69.6447 473.901 69.5914 473.704L67.8794 468.408C67.8367 468.275 67.7994 468.144 67.7674 468.016C67.7354 467.883 67.706 467.749 67.6794 467.616C67.6314 467.893 67.5647 468.163 67.4794 468.424L65.7434 473.704C65.69 473.901 65.5754 474 65.3994 474H64.2154L61.5914 465.872H62.8234C62.946 465.872 63.0474 465.901 63.1274 465.96C63.2127 466.019 63.2687 466.093 63.2954 466.184L64.7594 471.176C64.8074 471.379 64.85 471.576 64.8874 471.768C64.9247 471.96 64.9594 472.152 64.9914 472.344C65.0394 472.152 65.09 471.96 65.1434 471.768C65.202 471.576 65.2607 471.379 65.3194 471.176L66.9434 466.152C66.97 466.061 67.0207 465.989 67.0954 465.936C67.17 465.877 67.2607 465.848 67.3674 465.848H68.0474C68.1647 465.848 68.2607 465.877 68.3354 465.936C68.4154 465.989 68.4687 466.061 68.4954 466.152L70.0794 471.176C70.138 471.379 70.194 471.579 70.2474 471.776C70.3007 471.968 70.3487 472.163 70.3914 472.36C70.4234 472.168 70.4607 471.976 70.5034 471.784C70.546 471.587 70.594 471.384 70.6474 471.176L72.1354 466.184C72.162 466.093 72.2154 466.019 72.2954 465.96C72.3807 465.901 72.4767 465.872 72.5834 465.872H73.7594ZM78.4194 465.744C79.0167 465.744 79.5554 465.843 80.0354 466.04C80.5207 466.232 80.9314 466.512 81.2674 466.88C81.6087 467.243 81.87 467.683 82.0514 468.2C82.2327 468.712 82.3234 469.288 82.3234 469.928C82.3234 470.568 82.2327 471.147 82.0514 471.664C81.87 472.181 81.6087 472.621 81.2674 472.984C80.9314 473.347 80.5207 473.627 80.0354 473.824C79.5554 474.016 79.0167 474.112 78.4194 474.112C77.8167 474.112 77.2727 474.016 76.7874 473.824C76.3074 473.627 75.8967 473.347 75.5554 472.984C75.214 472.621 74.95 472.181 74.7634 471.664C74.582 471.147 74.4914 470.568 74.4914 469.928C74.4914 469.288 74.582 468.712 74.7634 468.2C74.95 467.683 75.214 467.243 75.5554 466.88C75.8967 466.512 76.3074 466.232 76.7874 466.04C77.2727 465.843 77.8167 465.744 78.4194 465.744ZM78.4194 472.896C79.1874 472.896 79.7607 472.637 80.1394 472.12C80.518 471.603 80.7074 470.875 80.7074 469.936C80.7074 468.997 80.518 468.269 80.1394 467.752C79.7607 467.229 79.1874 466.968 78.4194 466.968C77.6407 466.968 77.0594 467.229 76.6754 467.752C76.2967 468.269 76.1074 468.997 76.1074 469.936C76.1074 470.875 76.2967 471.603 76.6754 472.12C77.0594 472.637 77.6407 472.896 78.4194 472.896ZM85.5368 467.432C85.7981 466.899 86.1128 466.48 86.4808 466.176C86.8488 465.872 87.2914 465.72 87.8088 465.72C87.9848 465.72 88.1501 465.741 88.3048 465.784C88.4648 465.821 88.6034 465.88 88.7208 465.96L88.6168 467.136C88.5794 467.28 88.4914 467.352 88.3528 467.352C88.2781 467.352 88.1661 467.339 88.0168 467.312C87.8674 467.28 87.7074 467.264 87.5368 467.264C87.2861 467.264 87.0648 467.301 86.8728 467.376C86.6808 467.445 86.5074 467.552 86.3528 467.696C86.2034 467.835 86.0701 468.008 85.9528 468.216C85.8354 468.419 85.7261 468.651 85.6248 468.912V474H84.0648V465.872H84.9608C85.1314 465.872 85.2461 465.904 85.3048 465.968C85.3688 466.027 85.4141 466.133 85.4408 466.288L85.5368 467.432ZM94.8829 467.84C94.6269 467.504 94.3495 467.269 94.0509 467.136C93.7575 467.003 93.4269 466.936 93.0589 466.936C92.3442 466.936 91.7895 467.195 91.3949 467.712C91.0055 468.224 90.8109 468.973 90.8109 469.96C90.8109 470.477 90.8535 470.92 90.9389 471.288C91.0295 471.651 91.1575 471.949 91.3229 472.184C91.4935 472.413 91.7015 472.584 91.9469 472.696C92.1922 472.803 92.4695 472.856 92.7789 472.856C93.2322 472.856 93.6242 472.755 93.9549 472.552C94.2855 472.349 94.5949 472.064 94.8829 471.696V467.84ZM96.4509 462.192V474H95.5069C95.2882 474 95.1522 473.896 95.0989 473.688L94.9629 472.752C94.6162 473.163 94.2215 473.493 93.7789 473.744C93.3415 473.989 92.8349 474.112 92.2589 474.112C91.7949 474.112 91.3735 474.021 90.9949 473.84C90.6215 473.659 90.3015 473.395 90.0349 473.048C89.7682 472.696 89.5629 472.261 89.4189 471.744C89.2749 471.227 89.2029 470.632 89.2029 469.96C89.2029 469.357 89.2829 468.797 89.4429 468.28C89.6029 467.763 89.8349 467.315 90.1389 466.936C90.4429 466.557 90.8109 466.261 91.2429 466.048C91.6749 465.829 92.1629 465.72 92.7069 465.72C93.1975 465.72 93.6135 465.8 93.9549 465.96C94.3015 466.12 94.6109 466.347 94.8829 466.64V462.192H96.4509Z" fill="#808080"/>
<rect x="15.5" y="545.5" width="271" height="57" rx="11.5" stroke="#EBFAFF"/>
<path d="M33.2946 573.432C33.5559 572.899 33.8706 572.48 34.2386 572.176C34.6066 571.872 35.0492 571.72 35.5666 571.72C35.7426 571.72 35.9079 571.741 36.0626 571.784C36.2226 571.821 36.3612 571.88 36.4786 571.96L36.3746 573.136C36.3372 573.28 36.2492 573.352 36.1106 573.352C36.0359 573.352 35.9239 573.339 35.7746 573.312C35.6252 573.28 35.4652 573.264 35.2946 573.264C35.0439 573.264 34.8226 573.301 34.6306 573.376C34.4386 573.445 34.2652 573.552 34.1106 573.696C33.9612 573.835 33.8279 574.008 33.7106 574.216C33.5932 574.419 33.4839 574.651 33.3826 574.912V580H31.8226V571.872H32.7186C32.8892 571.872 33.0039 571.904 33.0626 571.968C33.1266 572.027 33.1719 572.133 33.1986 572.288L33.2946 573.432ZM42.7691 575.032C42.7691 574.723 42.7237 574.437 42.6331 574.176C42.5477 573.915 42.4197 573.688 42.2491 573.496C42.0784 573.304 41.8704 573.155 41.6251 573.048C41.3797 572.941 41.0971 572.888 40.7771 572.888C40.1211 572.888 39.6037 573.077 39.2251 573.456C38.8517 573.835 38.6144 574.36 38.5131 575.032H42.7691ZM44.0571 578.84C43.8651 579.064 43.6437 579.259 43.3931 579.424C43.1424 579.584 42.8757 579.715 42.5931 579.816C42.3104 579.917 42.0171 579.992 41.7131 580.04C41.4144 580.088 41.1184 580.112 40.8251 580.112C40.2651 580.112 39.7451 580.019 39.2651 579.832C38.7904 579.64 38.3771 579.363 38.0251 579C37.6784 578.632 37.4064 578.179 37.2091 577.64C37.0171 577.096 36.9211 576.472 36.9211 575.768C36.9211 575.203 37.0091 574.677 37.1851 574.192C37.3611 573.701 37.6117 573.275 37.9371 572.912C38.2677 572.549 38.6704 572.264 39.1451 572.056C39.6197 571.848 40.1531 571.744 40.7451 571.744C41.2411 571.744 41.6971 571.827 42.1131 571.992C42.5344 572.152 42.8971 572.387 43.2011 572.696C43.5051 573.005 43.7424 573.387 43.9131 573.84C44.0891 574.293 44.1771 574.811 44.1771 575.392C44.1771 575.632 44.1504 575.795 44.0971 575.88C44.0437 575.96 43.9451 576 43.8011 576H38.4731C38.4891 576.485 38.5584 576.909 38.6811 577.272C38.8037 577.629 38.9717 577.928 39.1851 578.168C39.4037 578.408 39.6624 578.587 39.9611 578.704C40.2597 578.821 40.5931 578.88 40.9611 578.88C41.3077 578.88 41.6064 578.84 41.8571 578.76C42.1131 578.68 42.3317 578.595 42.5131 578.504C42.6997 578.408 42.8544 578.32 42.9771 578.24C43.1051 578.16 43.2171 578.12 43.3131 578.12C43.4411 578.12 43.5397 578.168 43.6091 578.264L44.0571 578.84ZM47.4138 578C47.6698 578.336 47.9445 578.571 48.2378 578.704C48.5365 578.837 48.8698 578.904 49.2378 578.904C49.9525 578.904 50.5045 578.648 50.8938 578.136C51.2885 577.619 51.4858 576.867 51.4858 575.88C51.4858 575.363 51.4405 574.923 51.3498 574.56C51.2645 574.192 51.1365 573.893 50.9658 573.664C50.8005 573.429 50.5951 573.259 50.3498 573.152C50.1045 573.04 49.8271 572.984 49.5178 572.984C49.0645 572.984 48.6698 573.085 48.3338 573.288C48.0031 573.491 47.6965 573.779 47.4138 574.152V578ZM47.3338 573.088C47.5045 572.885 47.6858 572.701 47.8778 572.536C48.0751 572.365 48.2858 572.221 48.5098 572.104C48.7338 571.981 48.9711 571.888 49.2218 571.824C49.4778 571.755 49.7498 571.72 50.0378 571.72C50.5018 571.72 50.9205 571.811 51.2938 571.992C51.6725 572.173 51.9951 572.44 52.2618 572.792C52.5285 573.144 52.7338 573.579 52.8778 574.096C53.0271 574.613 53.1018 575.208 53.1018 575.88C53.1018 576.483 53.0191 577.043 52.8538 577.56C52.6938 578.072 52.4618 578.517 52.1578 578.896C51.8591 579.275 51.4911 579.573 51.0538 579.792C50.6218 580.005 50.1338 580.112 49.5898 580.112C49.1045 580.112 48.6885 580.032 48.3418 579.872C47.9951 579.712 47.6858 579.488 47.4138 579.2V582.728H45.8538V571.872H46.7898C47.0085 571.872 47.1445 571.976 47.1978 572.184L47.3338 573.088ZM60.2378 575.032C60.2378 574.723 60.1925 574.437 60.1018 574.176C60.0165 573.915 59.8885 573.688 59.7178 573.496C59.5471 573.304 59.3391 573.155 59.0938 573.048C58.8485 572.941 58.5658 572.888 58.2458 572.888C57.5898 572.888 57.0725 573.077 56.6938 573.456C56.3205 573.835 56.0831 574.36 55.9818 575.032H60.2378ZM61.5258 578.84C61.3338 579.064 61.1125 579.259 60.8618 579.424C60.6111 579.584 60.3445 579.715 60.0618 579.816C59.7791 579.917 59.4858 579.992 59.1818 580.04C58.8831 580.088 58.5871 580.112 58.2938 580.112C57.7338 580.112 57.2138 580.019 56.7338 579.832C56.2591 579.64 55.8458 579.363 55.4938 579C55.1471 578.632 54.8751 578.179 54.6778 577.64C54.4858 577.096 54.3898 576.472 54.3898 575.768C54.3898 575.203 54.4778 574.677 54.6538 574.192C54.8298 573.701 55.0805 573.275 55.4058 572.912C55.7365 572.549 56.1391 572.264 56.6138 572.056C57.0885 571.848 57.6218 571.744 58.2138 571.744C58.7098 571.744 59.1658 571.827 59.5818 571.992C60.0031 572.152 60.3658 572.387 60.6698 572.696C60.9738 573.005 61.2111 573.387 61.3818 573.84C61.5578 574.293 61.6458 574.811 61.6458 575.392C61.6458 575.632 61.6191 575.795 61.5658 575.88C61.5125 575.96 61.4138 576 61.2698 576H55.9418C55.9578 576.485 56.0271 576.909 56.1498 577.272C56.2725 577.629 56.4405 577.928 56.6538 578.168C56.8725 578.408 57.1311 578.587 57.4298 578.704C57.7285 578.821 58.0618 578.88 58.4298 578.88C58.7765 578.88 59.0751 578.84 59.3258 578.76C59.5818 578.68 59.8005 578.595 59.9818 578.504C60.1685 578.408 60.3231 578.32 60.4458 578.24C60.5738 578.16 60.6858 578.12 60.7818 578.12C60.9098 578.12 61.0085 578.168 61.0778 578.264L61.5258 578.84ZM67.6906 576.392C67.0559 576.413 66.5172 576.464 66.0746 576.544C65.6319 576.619 65.2719 576.72 64.9946 576.848C64.7172 576.976 64.5172 577.128 64.3946 577.304C64.2719 577.475 64.2106 577.667 64.2106 577.88C64.2106 578.083 64.2426 578.259 64.3066 578.408C64.3759 578.552 64.4666 578.672 64.5786 578.768C64.6959 578.859 64.8319 578.925 64.9866 578.968C65.1412 579.011 65.3092 579.032 65.4906 579.032C65.7306 579.032 65.9492 579.008 66.1466 578.96C66.3492 578.912 66.5386 578.845 66.7146 578.76C66.8906 578.669 67.0586 578.56 67.2186 578.432C67.3786 578.304 67.5359 578.157 67.6906 577.992V576.392ZM63.1146 573.008C63.5679 572.576 64.0586 572.253 64.5866 572.04C65.1199 571.827 65.7039 571.72 66.3386 571.72C66.8026 571.72 67.2132 571.797 67.5706 571.952C67.9279 572.101 68.2292 572.312 68.4746 572.584C68.7199 572.856 68.9039 573.181 69.0266 573.56C69.1546 573.939 69.2186 574.357 69.2186 574.816V580H68.5226C68.3679 580 68.2506 579.976 68.1706 579.928C68.0906 579.875 68.0266 579.779 67.9786 579.64L67.8106 578.928C67.6026 579.12 67.3972 579.291 67.1946 579.44C66.9919 579.584 66.7786 579.709 66.5546 579.816C66.3359 579.917 66.1012 579.995 65.8506 580.048C65.5999 580.101 65.3226 580.128 65.0186 580.128C64.6986 580.128 64.3972 580.085 64.1146 580C63.8372 579.909 63.5946 579.773 63.3866 579.592C63.1786 579.411 63.0132 579.184 62.8906 578.912C62.7732 578.64 62.7146 578.323 62.7146 577.96C62.7146 577.64 62.7999 577.333 62.9706 577.04C63.1466 576.741 63.4292 576.475 63.8186 576.24C64.2132 576.005 64.7252 575.813 65.3546 575.664C65.9892 575.515 66.7679 575.429 67.6906 575.408V574.816C67.6906 574.203 67.5599 573.744 67.2986 573.44C67.0372 573.136 66.6532 572.984 66.1466 572.984C65.8052 572.984 65.5172 573.027 65.2826 573.112C65.0532 573.197 64.8532 573.293 64.6826 573.4C64.5172 573.501 64.3706 573.595 64.2426 573.68C64.1199 573.765 63.9919 573.808 63.8586 573.808C63.7519 573.808 63.6586 573.779 63.5786 573.72C63.5039 573.661 63.4426 573.592 63.3946 573.512L63.1146 573.008ZM73.7416 580.128C73.0856 580.128 72.5789 579.944 72.2216 579.576C71.8696 579.208 71.6936 578.683 71.6936 578V573.136H70.7496C70.6589 573.136 70.5816 573.109 70.5176 573.056C70.4589 572.997 70.4296 572.912 70.4296 572.8V572.168L71.7496 571.984L72.1016 569.56C72.1229 569.469 72.1629 569.4 72.2216 569.352C72.2856 569.299 72.3656 569.272 72.4616 569.272H73.2536V572H75.5576V573.136H73.2536V577.896C73.2536 578.216 73.3309 578.456 73.4856 578.616C73.6456 578.771 73.8482 578.848 74.0936 578.848C74.2376 578.848 74.3602 578.829 74.4616 578.792C74.5682 578.755 74.6589 578.715 74.7336 578.672C74.8082 578.624 74.8722 578.581 74.9256 578.544C74.9789 578.507 75.0269 578.488 75.0696 578.488C75.1229 578.488 75.1629 578.501 75.1896 578.528C75.2216 578.549 75.2536 578.587 75.2856 578.64L75.7496 579.392C75.4936 579.627 75.1896 579.808 74.8376 579.936C74.4856 580.064 74.1202 580.128 73.7416 580.128ZM83.5853 580.128C82.9293 580.128 82.4226 579.944 82.0653 579.576C81.7133 579.208 81.5373 578.683 81.5373 578V573.136H80.5933C80.5026 573.136 80.4253 573.109 80.3613 573.056C80.3026 572.997 80.2733 572.912 80.2733 572.8V572.168L81.5933 571.984L81.9453 569.56C81.9666 569.469 82.0066 569.4 82.0653 569.352C82.1293 569.299 82.2093 569.272 82.3053 569.272H83.0973V572H85.4013V573.136H83.0973V577.896C83.0973 578.216 83.1746 578.456 83.3293 578.616C83.4893 578.771 83.692 578.848 83.9373 578.848C84.0813 578.848 84.204 578.829 84.3053 578.792C84.412 578.755 84.5026 578.715 84.5773 578.672C84.652 578.624 84.716 578.581 84.7693 578.544C84.8226 578.507 84.8706 578.488 84.9133 578.488C84.9666 578.488 85.0066 578.501 85.0333 578.528C85.0653 578.549 85.0973 578.587 85.1293 578.64L85.5933 579.392C85.3373 579.627 85.0333 579.808 84.6813 579.936C84.3293 580.064 83.964 580.128 83.5853 580.128ZM88.3982 572.904C88.7395 572.557 89.1155 572.277 89.5262 572.064C89.9422 571.851 90.4195 571.744 90.9582 571.744C91.4062 571.744 91.7982 571.819 92.1342 571.968C92.4755 572.117 92.7609 572.328 92.9902 572.6C93.2195 572.867 93.3929 573.189 93.5102 573.568C93.6275 573.947 93.6862 574.365 93.6862 574.824V580H92.1182V574.824C92.1182 574.243 91.9849 573.792 91.7182 573.472C91.4515 573.147 91.0435 572.984 90.4942 572.984C90.0942 572.984 89.7182 573.08 89.3662 573.272C89.0195 573.459 88.6969 573.715 88.3982 574.04V580H86.8382V568.192H88.3982V572.904ZM101.175 575.032C101.175 574.723 101.13 574.437 101.039 574.176C100.954 573.915 100.826 573.688 100.655 573.496C100.485 573.304 100.277 573.155 100.031 573.048C99.786 572.941 99.5033 572.888 99.1833 572.888C98.5273 572.888 98.01 573.077 97.6313 573.456C97.258 573.835 97.0206 574.36 96.9193 575.032H101.175ZM102.463 578.84C102.271 579.064 102.05 579.259 101.799 579.424C101.549 579.584 101.282 579.715 100.999 579.816C100.717 579.917 100.423 579.992 100.119 580.04C99.8206 580.088 99.5246 580.112 99.2313 580.112C98.6713 580.112 98.1513 580.019 97.6713 579.832C97.1966 579.64 96.7833 579.363 96.4313 579C96.0846 578.632 95.8126 578.179 95.6153 577.64C95.4233 577.096 95.3273 576.472 95.3273 575.768C95.3273 575.203 95.4153 574.677 95.5913 574.192C95.7673 573.701 96.018 573.275 96.3433 572.912C96.674 572.549 97.0766 572.264 97.5513 572.056C98.026 571.848 98.5593 571.744 99.1513 571.744C99.6473 571.744 100.103 571.827 100.519 571.992C100.941 572.152 101.303 572.387 101.607 572.696C101.911 573.005 102.149 573.387 102.319 573.84C102.495 574.293 102.583 574.811 102.583 575.392C102.583 575.632 102.557 575.795 102.503 575.88C102.45 575.96 102.351 576 102.207 576H96.8793C96.8953 576.485 96.9646 576.909 97.0873 577.272C97.21 577.629 97.378 577.928 97.5913 578.168C97.81 578.408 98.0686 578.587 98.3673 578.704C98.666 578.821 98.9993 578.88 99.3673 578.88C99.714 578.88 100.013 578.84 100.263 578.76C100.519 578.68 100.738 578.595 100.919 578.504C101.106 578.408 101.261 578.32 101.383 578.24C101.511 578.16 101.623 578.12 101.719 578.12C101.847 578.12 101.946 578.168 102.015 578.264L102.463 578.84ZM109.867 578C110.123 578.336 110.398 578.571 110.691 578.704C110.99 578.837 111.323 578.904 111.691 578.904C112.406 578.904 112.958 578.648 113.347 578.136C113.742 577.619 113.939 576.867 113.939 575.88C113.939 575.363 113.894 574.923 113.803 574.56C113.718 574.192 113.59 573.893 113.419 573.664C113.254 573.429 113.048 573.259 112.803 573.152C112.558 573.04 112.28 572.984 111.971 572.984C111.518 572.984 111.123 573.085 110.787 573.288C110.456 573.491 110.15 573.779 109.867 574.152V578ZM109.787 573.088C109.958 572.885 110.139 572.701 110.331 572.536C110.528 572.365 110.739 572.221 110.963 572.104C111.187 571.981 111.424 571.888 111.675 571.824C111.931 571.755 112.203 571.72 112.491 571.72C112.955 571.72 113.374 571.811 113.747 571.992C114.126 572.173 114.448 572.44 114.715 572.792C114.982 573.144 115.187 573.579 115.331 574.096C115.48 574.613 115.555 575.208 115.555 575.88C115.555 576.483 115.472 577.043 115.307 577.56C115.147 578.072 114.915 578.517 114.611 578.896C114.312 579.275 113.944 579.573 113.507 579.792C113.075 580.005 112.587 580.112 112.043 580.112C111.558 580.112 111.142 580.032 110.795 579.872C110.448 579.712 110.139 579.488 109.867 579.2V582.728H108.307V571.872H109.243C109.462 571.872 109.598 571.976 109.651 572.184L109.787 573.088ZM121.675 576.392C121.04 576.413 120.502 576.464 120.059 576.544C119.616 576.619 119.256 576.72 118.979 576.848C118.702 576.976 118.502 577.128 118.379 577.304C118.256 577.475 118.195 577.667 118.195 577.88C118.195 578.083 118.227 578.259 118.291 578.408C118.36 578.552 118.451 578.672 118.563 578.768C118.68 578.859 118.816 578.925 118.971 578.968C119.126 579.011 119.294 579.032 119.475 579.032C119.715 579.032 119.934 579.008 120.131 578.96C120.334 578.912 120.523 578.845 120.699 578.76C120.875 578.669 121.043 578.56 121.203 578.432C121.363 578.304 121.52 578.157 121.675 577.992V576.392ZM117.099 573.008C117.552 572.576 118.043 572.253 118.571 572.04C119.104 571.827 119.688 571.72 120.323 571.72C120.787 571.72 121.198 571.797 121.555 571.952C121.912 572.101 122.214 572.312 122.459 572.584C122.704 572.856 122.888 573.181 123.011 573.56C123.139 573.939 123.203 574.357 123.203 574.816V580H122.507C122.352 580 122.235 579.976 122.155 579.928C122.075 579.875 122.011 579.779 121.963 579.64L121.795 578.928C121.587 579.12 121.382 579.291 121.179 579.44C120.976 579.584 120.763 579.709 120.539 579.816C120.32 579.917 120.086 579.995 119.835 580.048C119.584 580.101 119.307 580.128 119.003 580.128C118.683 580.128 118.382 580.085 118.099 580C117.822 579.909 117.579 579.773 117.371 579.592C117.163 579.411 116.998 579.184 116.875 578.912C116.758 578.64 116.699 578.323 116.699 577.96C116.699 577.64 116.784 577.333 116.955 577.04C117.131 576.741 117.414 576.475 117.803 576.24C118.198 576.005 118.71 575.813 119.339 575.664C119.974 575.515 120.752 575.429 121.675 575.408V574.816C121.675 574.203 121.544 573.744 121.283 573.44C121.022 573.136 120.638 572.984 120.131 572.984C119.79 572.984 119.502 573.027 119.267 573.112C119.038 573.197 118.838 573.293 118.667 573.4C118.502 573.501 118.355 573.595 118.227 573.68C118.104 573.765 117.976 573.808 117.843 573.808C117.736 573.808 117.643 573.779 117.563 573.72C117.488 573.661 117.427 573.592 117.379 573.512L117.099 573.008ZM130.083 573.272C130.041 573.341 129.995 573.392 129.947 573.424C129.899 573.451 129.838 573.464 129.763 573.464C129.678 573.464 129.582 573.435 129.475 573.376C129.374 573.317 129.249 573.253 129.099 573.184C128.955 573.115 128.785 573.051 128.587 572.992C128.39 572.933 128.155 572.904 127.883 572.904C127.659 572.904 127.454 572.933 127.267 572.992C127.086 573.045 126.931 573.123 126.803 573.224C126.675 573.32 126.577 573.437 126.507 573.576C126.438 573.709 126.403 573.853 126.403 574.008C126.403 574.211 126.462 574.379 126.579 574.512C126.702 574.645 126.859 574.76 127.051 574.856C127.249 574.952 127.47 575.04 127.715 575.12C127.966 575.195 128.219 575.275 128.475 575.36C128.737 575.445 128.99 575.544 129.235 575.656C129.486 575.763 129.707 575.899 129.899 576.064C130.097 576.224 130.254 576.419 130.371 576.648C130.494 576.877 130.555 577.157 130.555 577.488C130.555 577.867 130.486 578.219 130.347 578.544C130.214 578.864 130.014 579.141 129.747 579.376C129.486 579.611 129.161 579.795 128.771 579.928C128.382 580.061 127.937 580.128 127.435 580.128C126.875 580.128 126.358 580.035 125.883 579.848C125.409 579.661 125.011 579.424 124.691 579.136L125.059 578.536C125.102 578.461 125.155 578.405 125.219 578.368C125.283 578.325 125.369 578.304 125.475 578.304C125.577 578.304 125.681 578.341 125.787 578.416C125.894 578.491 126.022 578.573 126.171 578.664C126.321 578.749 126.502 578.829 126.715 578.904C126.929 578.973 127.195 579.008 127.515 579.008C127.782 579.008 128.014 578.976 128.211 578.912C128.409 578.843 128.571 578.752 128.699 578.64C128.833 578.523 128.931 578.389 128.995 578.24C129.059 578.091 129.091 577.933 129.091 577.768C129.091 577.555 129.03 577.379 128.907 577.24C128.79 577.096 128.633 576.973 128.435 576.872C128.243 576.771 128.022 576.683 127.771 576.608C127.521 576.533 127.265 576.453 127.003 576.368C126.742 576.283 126.486 576.184 126.235 576.072C125.985 575.96 125.761 575.819 125.563 575.648C125.371 575.477 125.214 575.269 125.091 575.024C124.974 574.779 124.915 574.48 124.915 574.128C124.915 573.813 124.979 573.512 125.107 573.224C125.241 572.936 125.43 572.683 125.675 572.464C125.926 572.245 126.233 572.072 126.595 571.944C126.963 571.811 127.382 571.744 127.851 571.744C128.39 571.744 128.875 571.829 129.307 572C129.745 572.171 130.118 572.405 130.427 572.704L130.083 573.272ZM137.036 573.272C136.994 573.341 136.948 573.392 136.9 573.424C136.852 573.451 136.791 573.464 136.716 573.464C136.631 573.464 136.535 573.435 136.428 573.376C136.327 573.317 136.202 573.253 136.052 573.184C135.908 573.115 135.738 573.051 135.54 572.992C135.343 572.933 135.108 572.904 134.836 572.904C134.612 572.904 134.407 572.933 134.22 572.992C134.039 573.045 133.884 573.123 133.756 573.224C133.628 573.32 133.53 573.437 133.46 573.576C133.391 573.709 133.356 573.853 133.356 574.008C133.356 574.211 133.415 574.379 133.532 574.512C133.655 574.645 133.812 574.76 134.004 574.856C134.202 574.952 134.423 575.04 134.668 575.12C134.919 575.195 135.172 575.275 135.428 575.36C135.69 575.445 135.943 575.544 136.188 575.656C136.439 575.763 136.66 575.899 136.852 576.064C137.05 576.224 137.207 576.419 137.324 576.648C137.447 576.877 137.508 577.157 137.508 577.488C137.508 577.867 137.439 578.219 137.3 578.544C137.167 578.864 136.967 579.141 136.7 579.376C136.439 579.611 136.114 579.795 135.724 579.928C135.335 580.061 134.89 580.128 134.388 580.128C133.828 580.128 133.311 580.035 132.836 579.848C132.362 579.661 131.964 579.424 131.644 579.136L132.012 578.536C132.055 578.461 132.108 578.405 132.172 578.368C132.236 578.325 132.322 578.304 132.428 578.304C132.53 578.304 132.634 578.341 132.74 578.416C132.847 578.491 132.975 578.573 133.124 578.664C133.274 578.749 133.455 578.829 133.668 578.904C133.882 578.973 134.148 579.008 134.468 579.008C134.735 579.008 134.967 578.976 135.164 578.912C135.362 578.843 135.524 578.752 135.652 578.64C135.786 578.523 135.884 578.389 135.948 578.24C136.012 578.091 136.044 577.933 136.044 577.768C136.044 577.555 135.983 577.379 135.86 577.24C135.743 577.096 135.586 576.973 135.388 576.872C135.196 576.771 134.975 576.683 134.724 576.608C134.474 576.533 134.218 576.453 133.956 576.368C133.695 576.283 133.439 576.184 133.188 576.072C132.938 575.96 132.714 575.819 132.516 575.648C132.324 575.477 132.167 575.269 132.044 575.024C131.927 574.779 131.868 574.48 131.868 574.128C131.868 573.813 131.932 573.512 132.06 573.224C132.194 572.936 132.383 572.683 132.628 572.464C132.879 572.245 133.186 572.072 133.548 571.944C133.916 571.811 134.335 571.744 134.804 571.744C135.343 571.744 135.828 571.829 136.26 572C136.698 572.171 137.071 572.405 137.38 572.704L137.036 573.272ZM150.502 571.872L147.886 580H146.638C146.488 580 146.387 579.901 146.334 579.704L144.622 574.408C144.579 574.275 144.542 574.144 144.51 574.016C144.478 573.883 144.448 573.749 144.422 573.616C144.374 573.893 144.307 574.163 144.222 574.424L142.486 579.704C142.432 579.901 142.318 580 142.142 580H140.958L138.334 571.872H139.566C139.688 571.872 139.79 571.901 139.87 571.96C139.955 572.019 140.011 572.093 140.038 572.184L141.502 577.176C141.55 577.379 141.592 577.576 141.63 577.768C141.667 577.96 141.702 578.152 141.734 578.344C141.782 578.152 141.832 577.96 141.886 577.768C141.944 577.576 142.003 577.379 142.062 577.176L143.686 572.152C143.712 572.061 143.763 571.989 143.838 571.936C143.912 571.877 144.003 571.848 144.11 571.848H144.79C144.907 571.848 145.003 571.877 145.078 571.936C145.158 571.989 145.211 572.061 145.238 572.152L146.822 577.176C146.88 577.379 146.936 577.579 146.99 577.776C147.043 577.968 147.091 578.163 147.134 578.36C147.166 578.168 147.203 577.976 147.246 577.784C147.288 577.587 147.336 577.384 147.39 577.176L148.878 572.184C148.904 572.093 148.958 572.019 149.038 571.96C149.123 571.901 149.219 571.872 149.326 571.872H150.502ZM155.162 571.744C155.759 571.744 156.298 571.843 156.778 572.04C157.263 572.232 157.674 572.512 158.01 572.88C158.351 573.243 158.612 573.683 158.794 574.2C158.975 574.712 159.066 575.288 159.066 575.928C159.066 576.568 158.975 577.147 158.794 577.664C158.612 578.181 158.351 578.621 158.01 578.984C157.674 579.347 157.263 579.627 156.778 579.824C156.298 580.016 155.759 580.112 155.162 580.112C154.559 580.112 154.015 580.016 153.53 579.824C153.05 579.627 152.639 579.347 152.298 578.984C151.956 578.621 151.692 578.181 151.506 577.664C151.324 577.147 151.234 576.568 151.234 575.928C151.234 575.288 151.324 574.712 151.506 574.2C151.692 573.683 151.956 573.243 152.298 572.88C152.639 572.512 153.05 572.232 153.53 572.04C154.015 571.843 154.559 571.744 155.162 571.744ZM155.162 578.896C155.93 578.896 156.503 578.637 156.882 578.12C157.26 577.603 157.45 576.875 157.45 575.936C157.45 574.997 157.26 574.269 156.882 573.752C156.503 573.229 155.93 572.968 155.162 572.968C154.383 572.968 153.802 573.229 153.418 573.752C153.039 574.269 152.85 574.997 152.85 575.936C152.85 576.875 153.039 577.603 153.418 578.12C153.802 578.637 154.383 578.896 155.162 578.896ZM162.279 573.432C162.54 572.899 162.855 572.48 163.223 572.176C163.591 571.872 164.034 571.72 164.551 571.72C164.727 571.72 164.892 571.741 165.047 571.784C165.207 571.821 165.346 571.88 165.463 571.96L165.359 573.136C165.322 573.28 165.234 573.352 165.095 573.352C165.02 573.352 164.908 573.339 164.759 573.312C164.61 573.28 164.45 573.264 164.279 573.264C164.028 573.264 163.807 573.301 163.615 573.376C163.423 573.445 163.25 573.552 163.095 573.696C162.946 573.835 162.812 574.008 162.695 574.216C162.578 574.419 162.468 574.651 162.367 574.912V580H160.807V571.872H161.703C161.874 571.872 161.988 571.904 162.047 571.968C162.111 572.027 162.156 572.133 162.183 572.288L162.279 573.432ZM171.625 573.84C171.369 573.504 171.092 573.269 170.793 573.136C170.5 573.003 170.169 572.936 169.801 572.936C169.086 572.936 168.532 573.195 168.137 573.712C167.748 574.224 167.553 574.973 167.553 575.96C167.553 576.477 167.596 576.92 167.681 577.288C167.772 577.651 167.9 577.949 168.065 578.184C168.236 578.413 168.444 578.584 168.689 578.696C168.934 578.803 169.212 578.856 169.521 578.856C169.974 578.856 170.366 578.755 170.697 578.552C171.028 578.349 171.337 578.064 171.625 577.696V573.84ZM173.193 568.192V580H172.249C172.03 580 171.894 579.896 171.841 579.688L171.705 578.752C171.358 579.163 170.964 579.493 170.521 579.744C170.084 579.989 169.577 580.112 169.001 580.112C168.537 580.112 168.116 580.021 167.737 579.84C167.364 579.659 167.044 579.395 166.777 579.048C166.51 578.696 166.305 578.261 166.161 577.744C166.017 577.227 165.945 576.632 165.945 575.96C165.945 575.357 166.025 574.797 166.185 574.28C166.345 573.763 166.577 573.315 166.881 572.936C167.185 572.557 167.553 572.261 167.985 572.048C168.417 571.829 168.905 571.72 169.449 571.72C169.94 571.72 170.356 571.8 170.697 571.96C171.044 572.12 171.353 572.347 171.625 572.64V568.192H173.193Z" fill="#808080"/>
<rect x="70" y="757" width="160" height="48" rx="12" fill="#228EE5"/>
<rect x="70.5" y="757.5" width="159" height="47" rx="11.5" stroke="url(#paint0_linear_1207_2547)" stroke-opacity="0.7"/>
<path d="M131.049 785.571C131.145 785.571 131.228 785.608 131.297 785.683L131.969 786.419C131.5 786.974 130.927 787.403 130.249 787.707C129.577 788.011 128.767 788.163 127.817 788.163C126.985 788.163 126.231 788.019 125.553 787.731C124.881 787.443 124.305 787.04 123.825 786.523C123.351 786.006 122.983 785.387 122.721 784.667C122.46 783.947 122.329 783.155 122.329 782.291C122.329 781.427 122.465 780.635 122.737 779.915C123.015 779.195 123.401 778.576 123.897 778.059C124.393 777.542 124.985 777.139 125.673 776.851C126.367 776.563 127.132 776.419 127.969 776.419C128.785 776.419 129.511 776.552 130.145 776.819C130.78 777.086 131.332 777.44 131.801 777.883L131.241 778.675C131.204 778.734 131.156 778.782 131.097 778.819C131.044 778.856 130.972 778.875 130.881 778.875C130.78 778.875 130.66 778.824 130.521 778.723C130.388 778.622 130.209 778.51 129.985 778.387C129.767 778.259 129.495 778.144 129.169 778.043C128.844 777.942 128.439 777.891 127.953 777.891C127.383 777.891 126.86 777.992 126.385 778.195C125.911 778.392 125.5 778.68 125.153 779.059C124.812 779.432 124.545 779.894 124.353 780.443C124.167 780.987 124.073 781.603 124.073 782.291C124.073 782.99 124.172 783.611 124.369 784.155C124.567 784.699 124.839 785.16 125.185 785.539C125.532 785.918 125.94 786.206 126.409 786.403C126.879 786.6 127.385 786.699 127.929 786.699C128.26 786.699 128.556 786.68 128.817 786.643C129.084 786.6 129.327 786.539 129.545 786.459C129.769 786.379 129.98 786.278 130.177 786.155C130.375 786.027 130.569 785.875 130.761 785.699C130.804 785.662 130.849 785.632 130.897 785.611C130.945 785.584 130.996 785.571 131.049 785.571ZM136.669 779.779C137.267 779.779 137.805 779.878 138.285 780.075C138.771 780.267 139.181 780.547 139.517 780.915C139.859 781.278 140.12 781.718 140.301 782.235C140.483 782.747 140.573 783.323 140.573 783.963C140.573 784.603 140.483 785.182 140.301 785.699C140.12 786.216 139.859 786.656 139.517 787.019C139.181 787.382 138.771 787.662 138.285 787.859C137.805 788.051 137.267 788.147 136.669 788.147C136.067 788.147 135.523 788.051 135.037 787.859C134.557 787.662 134.147 787.382 133.805 787.019C133.464 786.656 133.2 786.216 133.013 785.699C132.832 785.182 132.741 784.603 132.741 783.963C132.741 783.323 132.832 782.747 133.013 782.235C133.2 781.718 133.464 781.278 133.805 780.915C134.147 780.547 134.557 780.267 135.037 780.075C135.523 779.878 136.067 779.779 136.669 779.779ZM136.669 786.931C137.437 786.931 138.011 786.672 138.389 786.155C138.768 785.638 138.957 784.91 138.957 783.971C138.957 783.032 138.768 782.304 138.389 781.787C138.011 781.264 137.437 781.003 136.669 781.003C135.891 781.003 135.309 781.264 134.925 781.787C134.547 782.304 134.357 783.032 134.357 783.971C134.357 784.91 134.547 785.638 134.925 786.155C135.309 786.672 135.891 786.931 136.669 786.931ZM143.779 781.035C143.955 780.848 144.139 780.678 144.331 780.523C144.523 780.368 144.725 780.238 144.939 780.131C145.157 780.019 145.389 779.934 145.635 779.875C145.885 779.811 146.152 779.779 146.435 779.779C146.883 779.779 147.275 779.854 147.611 780.003C147.952 780.152 148.237 780.363 148.467 780.635C148.696 780.902 148.869 781.224 148.987 781.603C149.104 781.982 149.163 782.4 149.163 782.859V788.035H147.595V782.859C147.595 782.278 147.461 781.827 147.195 781.507C146.928 781.182 146.52 781.019 145.971 781.019C145.571 781.019 145.195 781.115 144.843 781.307C144.496 781.494 144.173 781.75 143.875 782.075V788.035H142.315V779.907H143.251C143.469 779.907 143.605 780.011 143.659 780.219L143.779 781.035ZM151.687 788.035V781.187L150.839 781.083C150.716 781.056 150.615 781.014 150.535 780.955C150.46 780.891 150.423 780.8 150.423 780.683V780.035H151.687V779.643C151.687 779.147 151.764 778.691 151.919 778.275C152.079 777.854 152.316 777.491 152.631 777.187C152.951 776.883 153.346 776.648 153.815 776.483C154.29 776.312 154.844 776.227 155.479 776.227C155.682 776.227 155.895 776.24 156.119 776.267C156.343 776.294 156.532 776.334 156.687 776.387L156.631 777.203C156.62 777.31 156.554 777.366 156.431 777.371C156.308 777.376 156.138 777.379 155.919 777.379C155.434 777.379 155.02 777.427 154.679 777.523C154.338 777.619 154.058 777.763 153.839 777.955C153.62 778.147 153.46 778.39 153.359 778.683C153.258 778.971 153.207 779.307 153.207 779.691V780.035H158.151V788.035H156.583V781.171H153.255V788.035H151.687ZM161.881 781.467C162.142 780.934 162.457 780.515 162.825 780.211C163.193 779.907 163.635 779.755 164.153 779.755C164.329 779.755 164.494 779.776 164.649 779.819C164.809 779.856 164.947 779.915 165.065 779.995L164.961 781.171C164.923 781.315 164.835 781.387 164.697 781.387C164.622 781.387 164.51 781.374 164.361 781.347C164.211 781.315 164.051 781.299 163.881 781.299C163.63 781.299 163.409 781.336 163.217 781.411C163.025 781.48 162.851 781.587 162.697 781.731C162.547 781.87 162.414 782.043 162.297 782.251C162.179 782.454 162.07 782.686 161.969 782.947V788.035H160.409V779.907H161.305C161.475 779.907 161.59 779.939 161.649 780.003C161.713 780.062 161.758 780.168 161.785 780.323L161.881 781.467ZM166.268 788.035V779.907H167.204C167.423 779.907 167.559 780.011 167.612 780.219L167.724 780.995C168.023 780.638 168.353 780.347 168.716 780.123C169.084 779.894 169.513 779.779 170.004 779.779C170.543 779.779 170.98 779.928 171.316 780.227C171.652 780.52 171.897 780.92 172.052 781.427C172.169 781.139 172.321 780.891 172.508 780.683C172.695 780.475 172.903 780.304 173.132 780.171C173.361 780.038 173.604 779.939 173.86 779.875C174.121 779.811 174.385 779.779 174.652 779.779C175.084 779.779 175.468 779.848 175.804 779.987C176.145 780.12 176.433 780.318 176.668 780.579C176.903 780.84 177.081 781.163 177.204 781.547C177.327 781.931 177.388 782.368 177.388 782.859V788.035H175.82V782.859C175.82 782.251 175.687 781.792 175.42 781.483C175.159 781.174 174.775 781.019 174.268 781.019C174.044 781.019 173.831 781.059 173.628 781.139C173.425 781.214 173.247 781.328 173.092 781.483C172.943 781.638 172.823 781.83 172.732 782.059C172.647 782.288 172.604 782.555 172.604 782.859V788.035H171.036V782.859C171.036 782.23 170.911 781.766 170.66 781.467C170.409 781.168 170.041 781.019 169.556 781.019C169.22 781.019 168.908 781.107 168.62 781.283C168.332 781.459 168.068 781.699 167.828 782.003V788.035H166.268Z" fill="#EBFAFF"/>
<rect x="15.5" y="651.5" width="277" height="57" rx="11.5" stroke="#EBFAFF"/>
<path d="M41.771 683.632C42.2297 683.632 42.6403 683.555 43.003 683.4C43.3657 683.245 43.6723 683.029 43.923 682.752C44.1737 682.469 44.3657 682.136 44.499 681.752C44.6323 681.363 44.699 680.933 44.699 680.464V673.512H46.395V680.464C46.395 681.136 46.2883 681.757 46.075 682.328C45.8617 682.899 45.555 683.392 45.155 683.808C44.755 684.224 44.2697 684.549 43.699 684.784C43.1283 685.019 42.4857 685.136 41.771 685.136C41.0563 685.136 40.4137 685.019 39.843 684.784C39.2723 684.549 38.787 684.224 38.387 683.808C37.987 683.392 37.6803 682.899 37.467 682.328C37.2537 681.757 37.147 681.136 37.147 680.464V673.512H38.851V680.456C38.851 680.925 38.915 681.355 39.043 681.744C39.1763 682.133 39.3683 682.469 39.619 682.752C39.8697 683.029 40.1763 683.245 40.539 683.4C40.9017 683.555 41.3123 683.632 41.771 683.632ZM53.1849 678.272C53.1422 678.341 53.0969 678.392 53.0489 678.424C53.0009 678.451 52.9395 678.464 52.8649 678.464C52.7795 678.464 52.6835 678.435 52.5769 678.376C52.4755 678.317 52.3502 678.253 52.2009 678.184C52.0569 678.115 51.8862 678.051 51.6889 677.992C51.4915 677.933 51.2569 677.904 50.9849 677.904C50.7609 677.904 50.5555 677.933 50.3689 677.992C50.1875 678.045 50.0329 678.123 49.9049 678.224C49.7769 678.32 49.6782 678.437 49.6089 678.576C49.5395 678.709 49.5049 678.853 49.5049 679.008C49.5049 679.211 49.5635 679.379 49.6809 679.512C49.8035 679.645 49.9609 679.76 50.1529 679.856C50.3502 679.952 50.5715 680.04 50.8169 680.12C51.0675 680.195 51.3209 680.275 51.5769 680.36C51.8382 680.445 52.0915 680.544 52.3369 680.656C52.5875 680.763 52.8089 680.899 53.0009 681.064C53.1982 681.224 53.3555 681.419 53.4729 681.648C53.5955 681.877 53.6569 682.157 53.6569 682.488C53.6569 682.867 53.5875 683.219 53.4489 683.544C53.3155 683.864 53.1155 684.141 52.8489 684.376C52.5875 684.611 52.2622 684.795 51.8729 684.928C51.4835 685.061 51.0382 685.128 50.5369 685.128C49.9769 685.128 49.4595 685.035 48.9849 684.848C48.5102 684.661 48.1129 684.424 47.7929 684.136L48.1609 683.536C48.2035 683.461 48.2569 683.405 48.3209 683.368C48.3849 683.325 48.4702 683.304 48.5769 683.304C48.6782 683.304 48.7822 683.341 48.8889 683.416C48.9955 683.491 49.1235 683.573 49.2729 683.664C49.4222 683.749 49.6035 683.829 49.8169 683.904C50.0302 683.973 50.2969 684.008 50.6169 684.008C50.8835 684.008 51.1155 683.976 51.3129 683.912C51.5102 683.843 51.6729 683.752 51.8009 683.64C51.9342 683.523 52.0329 683.389 52.0969 683.24C52.1609 683.091 52.1929 682.933 52.1929 682.768C52.1929 682.555 52.1315 682.379 52.0089 682.24C51.8915 682.096 51.7342 681.973 51.5369 681.872C51.3449 681.771 51.1235 681.683 50.8729 681.608C50.6222 681.533 50.3662 681.453 50.1049 681.368C49.8435 681.283 49.5875 681.184 49.3369 681.072C49.0862 680.96 48.8622 680.819 48.6649 680.648C48.4729 680.477 48.3155 680.269 48.1929 680.024C48.0755 679.779 48.0169 679.48 48.0169 679.128C48.0169 678.813 48.0809 678.512 48.2089 678.224C48.3422 677.936 48.5315 677.683 48.7769 677.464C49.0275 677.245 49.3342 677.072 49.6969 676.944C50.0649 676.811 50.4835 676.744 50.9529 676.744C51.4915 676.744 51.9769 676.829 52.4089 677C52.8462 677.171 53.2195 677.405 53.5289 677.704L53.1849 678.272ZM60.73 680.032C60.73 679.723 60.6847 679.437 60.594 679.176C60.5087 678.915 60.3807 678.688 60.21 678.496C60.0393 678.304 59.8313 678.155 59.586 678.048C59.3407 677.941 59.058 677.888 58.738 677.888C58.082 677.888 57.5647 678.077 57.186 678.456C56.8127 678.835 56.5753 679.36 56.474 680.032H60.73ZM62.018 683.84C61.826 684.064 61.6047 684.259 61.354 684.424C61.1033 684.584 60.8367 684.715 60.554 684.816C60.2713 684.917 59.978 684.992 59.674 685.04C59.3753 685.088 59.0793 685.112 58.786 685.112C58.226 685.112 57.706 685.019 57.226 684.832C56.7513 684.64 56.338 684.363 55.986 684C55.6393 683.632 55.3673 683.179 55.17 682.64C54.978 682.096 54.882 681.472 54.882 680.768C54.882 680.203 54.97 679.677 55.146 679.192C55.322 678.701 55.5727 678.275 55.898 677.912C56.2287 677.549 56.6313 677.264 57.106 677.056C57.5807 676.848 58.114 676.744 58.706 676.744C59.202 676.744 59.658 676.827 60.074 676.992C60.4953 677.152 60.858 677.387 61.162 677.696C61.466 678.005 61.7033 678.387 61.874 678.84C62.05 679.293 62.138 679.811 62.138 680.392C62.138 680.632 62.1113 680.795 62.058 680.88C62.0047 680.96 61.906 681 61.762 681H56.434C56.45 681.485 56.5193 681.909 56.642 682.272C56.7647 682.629 56.9327 682.928 57.146 683.168C57.3647 683.408 57.6233 683.587 57.922 683.704C58.2207 683.821 58.554 683.88 58.922 683.88C59.2687 683.88 59.5673 683.84 59.818 683.76C60.074 683.68 60.2927 683.595 60.474 683.504C60.6607 683.408 60.8153 683.32 60.938 683.24C61.066 683.16 61.178 683.12 61.274 683.12C61.402 683.12 61.5007 683.168 61.57 683.264L62.018 683.84ZM65.2868 678.432C65.5481 677.899 65.8628 677.48 66.2308 677.176C66.5988 676.872 67.0414 676.72 67.5588 676.72C67.7348 676.72 67.9001 676.741 68.0548 676.784C68.2148 676.821 68.3534 676.88 68.4708 676.96L68.3668 678.136C68.3294 678.28 68.2414 678.352 68.1028 678.352C68.0281 678.352 67.9161 678.339 67.7668 678.312C67.6174 678.28 67.4574 678.264 67.2868 678.264C67.0361 678.264 66.8148 678.301 66.6228 678.376C66.4308 678.445 66.2574 678.552 66.1028 678.696C65.9534 678.835 65.8201 679.008 65.7028 679.216C65.5854 679.419 65.4761 679.651 65.3748 679.912V685H63.8148V676.872H64.7108C64.8814 676.872 64.9961 676.904 65.0548 676.968C65.1188 677.027 65.1641 677.133 65.1908 677.288L65.2868 678.432ZM79.2615 673.512V685H78.3975C78.2642 685 78.1522 684.976 78.0615 684.928C77.9762 684.88 77.8882 684.803 77.7975 684.696L71.3095 676.304C71.3202 676.448 71.3282 676.589 71.3335 676.728C71.3442 676.867 71.3495 676.997 71.3495 677.12V685H69.8535V673.512H70.7335C70.8828 673.512 70.9948 673.531 71.0695 673.568C71.1442 673.6 71.2268 673.677 71.3175 673.8L77.8215 682.2C77.8055 682.045 77.7922 681.896 77.7815 681.752C77.7762 681.603 77.7735 681.464 77.7735 681.336V673.512H79.2615ZM85.9171 681.392C85.2825 681.413 84.7438 681.464 84.3011 681.544C83.8585 681.619 83.4985 681.72 83.2211 681.848C82.9438 681.976 82.7438 682.128 82.6211 682.304C82.4985 682.475 82.4371 682.667 82.4371 682.88C82.4371 683.083 82.4691 683.259 82.5331 683.408C82.6025 683.552 82.6931 683.672 82.8051 683.768C82.9225 683.859 83.0585 683.925 83.2131 683.968C83.3678 684.011 83.5358 684.032 83.7171 684.032C83.9571 684.032 84.1758 684.008 84.3731 683.96C84.5758 683.912 84.7651 683.845 84.9411 683.76C85.1171 683.669 85.2851 683.56 85.4451 683.432C85.6051 683.304 85.7625 683.157 85.9171 682.992V681.392ZM81.3411 678.008C81.7945 677.576 82.2851 677.253 82.8131 677.04C83.3465 676.827 83.9305 676.72 84.5651 676.72C85.0291 676.72 85.4398 676.797 85.7971 676.952C86.1545 677.101 86.4558 677.312 86.7011 677.584C86.9465 677.856 87.1305 678.181 87.2531 678.56C87.3811 678.939 87.4451 679.357 87.4451 679.816V685H86.7491C86.5945 685 86.4771 684.976 86.3971 684.928C86.3171 684.875 86.2531 684.779 86.2051 684.64L86.0371 683.928C85.8291 684.12 85.6238 684.291 85.4211 684.44C85.2185 684.584 85.0051 684.709 84.7811 684.816C84.5625 684.917 84.3278 684.995 84.0771 685.048C83.8265 685.101 83.5491 685.128 83.2451 685.128C82.9251 685.128 82.6238 685.085 82.3411 685C82.0638 684.909 81.8211 684.773 81.6131 684.592C81.4051 684.411 81.2398 684.184 81.1171 683.912C80.9998 683.64 80.9411 683.323 80.9411 682.96C80.9411 682.64 81.0265 682.333 81.1971 682.04C81.3731 681.741 81.6558 681.475 82.0451 681.24C82.4398 681.005 82.9518 680.813 83.5811 680.664C84.2158 680.515 84.9945 680.429 85.9171 680.408V679.816C85.9171 679.203 85.7865 678.744 85.5251 678.44C85.2638 678.136 84.8798 677.984 84.3731 677.984C84.0318 677.984 83.7438 678.027 83.5091 678.112C83.2798 678.197 83.0798 678.293 82.9091 678.4C82.7438 678.501 82.5971 678.595 82.4691 678.68C82.3465 678.765 82.2185 678.808 82.0851 678.808C81.9785 678.808 81.8851 678.779 81.8051 678.72C81.7305 678.661 81.6691 678.592 81.6211 678.512L81.3411 678.008ZM89.5335 685V676.872H90.4695C90.6882 676.872 90.8242 676.976 90.8775 677.184L90.9895 677.96C91.2882 677.603 91.6188 677.312 91.9815 677.088C92.3495 676.859 92.7788 676.744 93.2695 676.744C93.8082 676.744 94.2455 676.893 94.5815 677.192C94.9175 677.485 95.1628 677.885 95.3175 678.392C95.4348 678.104 95.5868 677.856 95.7735 677.648C95.9602 677.44 96.1682 677.269 96.3975 677.136C96.6268 677.003 96.8695 676.904 97.1255 676.84C97.3868 676.776 97.6508 676.744 97.9175 676.744C98.3495 676.744 98.7335 676.813 99.0695 676.952C99.4108 677.085 99.6988 677.283 99.9335 677.544C100.168 677.805 100.347 678.128 100.47 678.512C100.592 678.896 100.654 679.333 100.654 679.824V685H99.0855V679.824C99.0855 679.216 98.9522 678.757 98.6855 678.448C98.4242 678.139 98.0402 677.984 97.5335 677.984C97.3095 677.984 97.0962 678.024 96.8935 678.104C96.6908 678.179 96.5122 678.293 96.3575 678.448C96.2082 678.603 96.0882 678.795 95.9975 679.024C95.9122 679.253 95.8695 679.52 95.8695 679.824V685H94.3015V679.824C94.3015 679.195 94.1762 678.731 93.9255 678.432C93.6748 678.133 93.3068 677.984 92.8215 677.984C92.4855 677.984 92.1735 678.072 91.8855 678.248C91.5975 678.424 91.3335 678.664 91.0935 678.968V685H89.5335ZM108.136 680.032C108.136 679.723 108.091 679.437 108 679.176C107.915 678.915 107.787 678.688 107.616 678.496C107.446 678.304 107.238 678.155 106.992 678.048C106.747 677.941 106.464 677.888 106.144 677.888C105.488 677.888 104.971 678.077 104.592 678.456C104.219 678.835 103.982 679.36 103.88 680.032H108.136ZM109.424 683.84C109.232 684.064 109.011 684.259 108.76 684.424C108.51 684.584 108.243 684.715 107.96 684.816C107.678 684.917 107.384 684.992 107.08 685.04C106.782 685.088 106.486 685.112 106.192 685.112C105.632 685.112 105.112 685.019 104.632 684.832C104.158 684.64 103.744 684.363 103.392 684C103.046 683.632 102.774 683.179 102.576 682.64C102.384 682.096 102.288 681.472 102.288 680.768C102.288 680.203 102.376 679.677 102.552 679.192C102.728 678.701 102.979 678.275 103.304 677.912C103.635 677.549 104.038 677.264 104.512 677.056C104.987 676.848 105.52 676.744 106.112 676.744C106.608 676.744 107.064 676.827 107.48 676.992C107.902 677.152 108.264 677.387 108.568 677.696C108.872 678.005 109.11 678.387 109.28 678.84C109.456 679.293 109.544 679.811 109.544 680.392C109.544 680.632 109.518 680.795 109.464 680.88C109.411 680.96 109.312 681 109.168 681H103.84C103.856 681.485 103.926 681.909 104.048 682.272C104.171 682.629 104.339 682.928 104.552 683.168C104.771 683.408 105.03 683.587 105.328 683.704C105.627 683.821 105.96 683.88 106.328 683.88C106.675 683.88 106.974 683.84 107.224 683.76C107.48 683.68 107.699 683.595 107.88 683.504C108.067 683.408 108.222 683.32 108.344 683.24C108.472 683.16 108.584 683.12 108.68 683.12C108.808 683.12 108.907 683.168 108.976 683.264L109.424 683.84Z" fill="#808080"/>
<path fill-rule="evenodd" clip-rule="evenodd" d="M266.999 676C266.999 674.343 268.342 673 269.999 673C271.656 673 272.999 674.343 272.999 676C272.999 677.657 271.656 679 269.999 679C268.342 679 266.999 677.657 266.999 676Z" fill="#EBFAFF"/>
<path fill-rule="evenodd" clip-rule="evenodd" d="M264.5 685.404C264.552 682.41 266.994 680 269.999 680C273.005 680 275.447 682.41 275.498 685.404C275.502 685.602 275.387 685.784 275.207 685.867C273.621 686.595 271.857 687 269.999 687C268.142 687 266.378 686.594 264.791 685.867C264.611 685.784 264.497 685.602 264.5 685.404Z" fill="#EBFAFF"/>
<g filter="url(#filter0_f_1207_2547)">
<rect x="201" y="141" width="79" height="4" rx="2" fill="#228EE5"/>
</g>
<defs>
<filter id="filter0_f_1207_2547" x="195" y="135" width="91" height="16" filterUnits="userSpaceOnUse" color-interpolation-filters="sRGB">
<feFlood flood-opacity="0" result="BackgroundImageFix"/>
<feBlend mode="normal" in="SourceGraphic" in2="BackgroundImageFix" result="shape"/>
<feGaussianBlur stdDeviation="3" result="effect1_foregroundBlur_1207_2547"/>
</filter>
<linearGradient id="paint0_linear_1207_2547" x1="58.0519" y1="757" x2="225.977" y2="795.307" gradientUnits="userSpaceOnUse">
<stop stop-color="white"/>
<stop offset="0.557292" stop-color="white" stop-opacity="0"/>
<stop offset="1" stop-color="white" stop-opacity="0.66"/>
</linearGradient>
</defs>
</svg>
